<?xml version="1.0" encoding="UTF-8"?>
<svg id="Layer_1" xmlns="http://www.w3.org/2000/svg" xmlns:xlink="http://www.w3.org/1999/xlink" version="1.1" viewBox="0 0 3000 2657.7">
  <!-- Generator: Adobe Illustrator 29.5.0, SVG Export Plug-In . SVG Version: 2.1.0 Build 137)  -->
  <defs>
    <style>
      .st0 {
        mask: url(#mask);
      }

      .st1 {
        filter: url(#luminosity-noclip);
      }

      .st2 {
        fill: url(#linear-gradient2);
      }

      .st3 {
        fill: url(#linear-gradient1);
      }

      .st4 {
        fill: url(#linear-gradient9);
      }

      .st5 {
        fill: url(#linear-gradient3);
      }

      .st6 {
        fill: url(#linear-gradient6);
      }

      .st7 {
        fill: url(#linear-gradient8);
      }

      .st8 {
        fill: url(#linear-gradient7);
      }

      .st9 {
        fill: url(#linear-gradient5);
      }

      .st10 {
        fill: url(#linear-gradient4);
      }

      .st11 {
        fill: url(#linear-gradient31);
      }

      .st12 {
        fill: url(#linear-gradient30);
      }

      .st13 {
        fill: url(#linear-gradient38);
      }

      .st14 {
        fill: url(#linear-gradient32);
      }

      .st15 {
        fill: url(#linear-gradient61);
      }

      .st16 {
        fill: url(#linear-gradient60);
      }

      .st17 {
        fill: url(#linear-gradient62);
      }

      .st18 {
        fill: url(#linear-gradient69);
      }

      .st19 {
        fill: url(#linear-gradient65);
      }

      .st20 {
        fill: url(#linear-gradient68);
      }

      .st21 {
        fill: url(#linear-gradient67);
      }

      .st22 {
        fill: url(#linear-gradient64);
      }

      .st23 {
        fill: url(#linear-gradient63);
      }

      .st24 {
        fill: url(#linear-gradient66);
      }

      .st25 {
        fill: url(#linear-gradient71);
      }

      .st26 {
        fill: url(#linear-gradient70);
      }

      .st27 {
        fill: url(#linear-gradient39);
      }

      .st28 {
        fill: url(#linear-gradient34);
      }

      .st29 {
        fill: url(#linear-gradient37);
      }

      .st30 {
        fill: url(#linear-gradient35);
      }

      .st31 {
        fill: url(#linear-gradient33);
      }

      .st32 {
        fill: url(#linear-gradient36);
      }

      .st33 {
        fill: url(#linear-gradient80);
      }

      .st34 {
        fill: url(#linear-gradient81);
      }

      .st35 {
        fill: url(#linear-gradient40);
      }

      .st36 {
        fill: url(#linear-gradient41);
      }

      .st37 {
        fill: url(#linear-gradient42);
      }

      .st38 {
        fill: url(#linear-gradient46);
      }

      .st39 {
        fill: url(#linear-gradient48);
      }

      .st40 {
        fill: url(#linear-gradient43);
      }

      .st41 {
        fill: url(#linear-gradient44);
      }

      .st42 {
        fill: url(#linear-gradient47);
      }

      .st43 {
        fill: url(#linear-gradient45);
      }

      .st44 {
        fill: url(#linear-gradient49);
      }

      .st45 {
        fill: url(#linear-gradient79);
      }

      .st46 {
        fill: url(#linear-gradient78);
      }

      .st47 {
        fill: url(#linear-gradient77);
      }

      .st48 {
        fill: url(#linear-gradient76);
      }

      .st49 {
        fill: url(#linear-gradient75);
      }

      .st50 {
        fill: url(#linear-gradient73);
      }

      .st51 {
        fill: url(#linear-gradient74);
      }

      .st52 {
        fill: url(#linear-gradient72);
      }

      .st53 {
        fill: url(#linear-gradient50);
      }

      .st54 {
        fill: url(#linear-gradient51);
      }

      .st55 {
        fill: url(#linear-gradient52);
      }

      .st56 {
        fill: url(#linear-gradient59);
      }

      .st57 {
        fill: url(#linear-gradient53);
      }

      .st58 {
        fill: url(#linear-gradient56);
      }

      .st59 {
        fill: url(#linear-gradient54);
      }

      .st60 {
        fill: url(#linear-gradient57);
      }

      .st61 {
        fill: url(#linear-gradient55);
      }

      .st62 {
        fill: url(#linear-gradient58);
      }

      .st63 {
        fill: url(#linear-gradient28);
      }

      .st64 {
        fill: url(#linear-gradient29);
      }

      .st65 {
        fill: url(#linear-gradient13);
      }

      .st66 {
        fill: url(#linear-gradient12);
      }

      .st67 {
        fill: url(#linear-gradient15);
      }

      .st68 {
        fill: url(#linear-gradient16);
      }

      .st69 {
        fill: url(#linear-gradient11);
      }

      .st70 {
        fill: url(#linear-gradient10);
      }

      .st71 {
        fill: url(#linear-gradient14);
      }

      .st72 {
        fill: url(#linear-gradient19);
      }

      .st73 {
        fill: url(#linear-gradient23);
      }

      .st74 {
        fill: url(#linear-gradient24);
      }

      .st75 {
        fill: url(#linear-gradient25);
      }

      .st76 {
        fill: url(#linear-gradient20);
      }

      .st77 {
        fill: url(#linear-gradient27);
      }

      .st78 {
        fill: url(#linear-gradient26);
      }

      .st79 {
        filter: url(#luminosity-noclip2);
      }

      .st80 {
        fill: url(#linear-gradient21);
      }

      .st80, .st81 {
        mix-blend-mode: multiply;
      }

      .st81 {
        fill: url(#linear-gradient17);
      }

      .st82 {
        fill: #cfd1d3;
      }

      .st83 {
        fill: url(#linear-gradient);
      }

      .st84 {
        fill: #fdfffc;
      }

      .st85 {
        opacity: 0;
      }

      .st85, .st86, .st87, .st88, .st89, .st90, .st91, .st92, .st93, .st94, .st95, .st96, .st97, .st98, .st99, .st100, .st101, .st102, .st103, .st104, .st105, .st106, .st107, .st108, .st109, .st110, .st111, .st112, .st113, .st114 {
        fill: #262a35;
      }

      .st86 {
        opacity: .1;
      }

      .st87 {
        opacity: 0;
      }

      .st88 {
        opacity: .4;
      }

      .st89 {
        opacity: .4;
      }

      .st90 {
        opacity: .6;
      }

      .st91 {
        opacity: .7;
      }

      .st92 {
        opacity: .3;
      }

      .st93 {
        opacity: 1;
      }

      .st94 {
        opacity: .4;
      }

      .st95 {
        opacity: .9;
      }

      .st96 {
        opacity: .8;
      }

      .st97 {
        opacity: .8;
      }

      .st98 {
        opacity: .8;
      }

      .st99 {
        opacity: .7;
      }

      .st100 {
        opacity: .7;
      }

      .st101 {
        opacity: .9;
      }

      .st102 {
        opacity: .9;
      }

      .st103 {
        opacity: .1;
      }

      .st104 {
        opacity: .2;
      }

      .st105 {
        opacity: .3;
      }

      .st106 {
        opacity: .2;
      }

      .st107 {
        opacity: .3;
      }

      .st108 {
        opacity: .2;
      }

      .st109 {
        opacity: .5;
      }

      .st110 {
        opacity: .5;
      }

      .st111 {
        opacity: .6;
      }

      .st112 {
        opacity: .6;
      }

      .st115 {
        fill: #ed9e9a;
      }

      .st116 {
        mask: url(#mask-2);
      }

      .st117 {
        mask: url(#mask-3);
      }

      .st118 {
        mask: url(#mask-1);
      }

      .st119 {
        fill: #fffeff;
      }

      .st120 {
        fill: #a5a5a0;
      }

      .st121 {
        fill: url(#linear-gradient18);
      }

      .st121, .st122 {
        opacity: .2;
      }

      .st122 {
        fill: url(#linear-gradient22);
      }

      .st123 {
        fill: #fff;
      }

      .st113 {
        opacity: 0;
      }

      .st124 {
        fill: #edebe6;
      }

      .st125 {
        opacity: .3;
      }

      .st126 {
        fill: #fefefe;
      }

      .st127 {
        fill: #ff378f;
      }

      .st128 {
        fill: #dd7c12;
      }
    </style>
    <linearGradient id="linear-gradient" x1="845" y1="1915.5" x2="1651.6" y2="1915.5" gradientUnits="userSpaceOnUse">
      <stop offset="0" stop-color="#587082"/>
      <stop offset="1" stop-color="#1a1e28"/>
    </linearGradient>
    <linearGradient id="linear-gradient1" x1="401.5" y1="1404.3" x2="563.2" y2="1404.3" gradientUnits="userSpaceOnUse">
      <stop offset="0" stop-color="#f6f2ed"/>
      <stop offset="1" stop-color="#d3d1cd"/>
    </linearGradient>
    <linearGradient id="linear-gradient2" x1="382.5" y1="1282.2" x2="591.7" y2="1282.2" xlink:href="#linear-gradient"/>
    <linearGradient id="linear-gradient3" x1="676.3" y1="1076.2" x2="562.4" y2="1251.3" gradientUnits="userSpaceOnUse">
      <stop offset="0" stop-color="#38aca8"/>
      <stop offset="1" stop-color="#5f637a"/>
    </linearGradient>
    <linearGradient id="linear-gradient4" x1="509.9" y1="1187.2" x2="702.9" y2="1187.2" gradientUnits="userSpaceOnUse">
      <stop offset="0" stop-color="#82d7db"/>
      <stop offset="1" stop-color="#5dc9a5"/>
    </linearGradient>
    <linearGradient id="linear-gradient5" x1="436" y1="1156.1" x2="389.1" y2="1228.2" xlink:href="#linear-gradient3"/>
    <linearGradient id="linear-gradient6" x1="489.9" y1="1268.7" x2="374.7" y2="1130.3" xlink:href="#linear-gradient4"/>
    <linearGradient id="linear-gradient7" x1="536.2" y1="1246" x2="386.5" y2="1066.2" xlink:href="#linear-gradient3"/>
    <linearGradient id="linear-gradient8" x1="433.6" y1="1029.7" x2="521.5" y2="1295.1" xlink:href="#linear-gradient4"/>
    <linearGradient id="linear-gradient9" x1="595.6" y1="1204.9" x2="618.4" y2="1273.7" xlink:href="#linear-gradient4"/>
    <linearGradient id="linear-gradient10" x1="393.3" y1="1226.2" x2="421.3" y2="1310.8" xlink:href="#linear-gradient4"/>
    <linearGradient id="linear-gradient11" x1="679.7" y1="1541.2" x2="751.4" y2="1530.1" xlink:href="#linear-gradient"/>
    <linearGradient id="linear-gradient12" x1="756.3" y1="1550.6" x2="828" y2="1539.5" xlink:href="#linear-gradient"/>
    <linearGradient id="linear-gradient13" x1="650.1" y1="1314" x2="730.9" y2="1301.6" xlink:href="#linear-gradient"/>
    <linearGradient id="linear-gradient14" x1="744.4" y1="1300.8" x2="850.2" y2="1250.2" xlink:href="#linear-gradient"/>
    <linearGradient id="linear-gradient15" x1="686.4" y1="795.3" x2="782.7" y2="795.3" gradientUnits="userSpaceOnUse">
      <stop offset="0" stop-color="#ffd9d9"/>
      <stop offset="1" stop-color="#efb4b4"/>
    </linearGradient>
    <linearGradient id="linear-gradient16" x1="1849.4" y1="564" x2="1332.6" y2="1536.6" gradientTransform="translate(534.4 2643.3) rotate(-90)" xlink:href="#linear-gradient"/>
    <filter id="luminosity-noclip" x="795.4" y="610.6" width="1075" height="704.9" color-interpolation-filters="sRGB" filterUnits="userSpaceOnUse">
      <feFlood flood-color="#fff" result="bg"/>
      <feBlend in="SourceGraphic" in2="bg"/>
    </filter>
    <filter id="luminosity-noclip1" x="795.4" y="-9521" width="1075" height="32766" color-interpolation-filters="sRGB" filterUnits="userSpaceOnUse">
      <feFlood flood-color="#fff" result="bg"/>
      <feBlend in="SourceGraphic" in2="bg"/>
    </filter>
    <mask id="mask-1" x="795.4" y="-9521" width="1075" height="32766" maskUnits="userSpaceOnUse"/>
    <linearGradient id="linear-gradient17" x1="1537.7" y1="577.6" x2="1131.5" y2="1342.1" gradientUnits="userSpaceOnUse">
      <stop offset="0" stop-color="#fff"/>
      <stop offset="1" stop-color="#1a1a1a"/>
    </linearGradient>
    <mask id="mask" x="795.4" y="610.6" width="1075" height="704.9" maskUnits="userSpaceOnUse">
      <g class="st1">
        <g class="st118">
          <path class="st81" d="M1870.4,651.3v623.5c0,22.5-18.3,40.7-40.7,40.7h-993.6c-22.4,0-40.7-18.2-40.7-40.7v-623.5c0-22.4,18.3-40.7,40.7-40.7h993.6c22.4,0,40.7,18.3,40.7,40.7Z"/>
        </g>
      </g>
    </mask>
    <linearGradient id="linear-gradient18" x1="1537.7" y1="577.6" x2="1131.5" y2="1342.1" gradientUnits="userSpaceOnUse">
      <stop offset="0" stop-color="#0c5c93"/>
      <stop offset="1" stop-color="#0c5c93"/>
    </linearGradient>
    <linearGradient id="linear-gradient19" x1="1557.2" y1="559.2" x2="1150.9" y2="1323.7" xlink:href="#linear-gradient3"/>
    <linearGradient id="linear-gradient20" x1="1463" y1="448.7" x2="1249.4" y2="850.7" xlink:href="#linear-gradient"/>
    <filter id="luminosity-noclip2" x="1369.3" y="845.4" width="764.8" height="662" color-interpolation-filters="sRGB" filterUnits="userSpaceOnUse">
      <feFlood flood-color="#fff" result="bg"/>
      <feBlend in="SourceGraphic" in2="bg"/>
    </filter>
    <filter id="luminosity-noclip3" x="1369.3" y="-9521" width="764.8" height="32766" color-interpolation-filters="sRGB" filterUnits="userSpaceOnUse">
      <feFlood flood-color="#fff" result="bg"/>
      <feBlend in="SourceGraphic" in2="bg"/>
    </filter>
    <mask id="mask-3" x="1369.3" y="-9521" width="764.8" height="32766" maskUnits="userSpaceOnUse"/>
    <linearGradient id="linear-gradient21" x1="1369.3" y1="1176.5" x2="2134.1" y2="1176.5" xlink:href="#linear-gradient17"/>
    <mask id="mask-2" x="1369.3" y="845.4" width="764.8" height="662" maskUnits="userSpaceOnUse">
      <g class="st79">
        <g class="st117">
          <path class="st80" d="M2134.1,876.6v599.8c0,17.1-14,31.1-31.3,31.1h-702.5c-17.1,0-31.1-14-31.1-31.1v-599.8c0-17.2,14-31.1,31.1-31.1h702.5c17.2,0,31.3,13.9,31.3,31.1Z"/>
        </g>
      </g>
    </mask>
    <linearGradient id="linear-gradient22" x1="1369.3" y1="1176.5" x2="2134.1" y2="1176.5" xlink:href="#linear-gradient18"/>
    <linearGradient id="linear-gradient23" x1="1407.5" y1="897.7" x2="2134.6" y2="897.7" xlink:href="#linear-gradient3"/>
    <linearGradient id="linear-gradient24" x1="1634.9" y1="1395.9" x2="1510.8" y2="641" gradientUnits="userSpaceOnUse">
      <stop offset="0" stop-color="#ffac06"/>
      <stop offset="1" stop-color="#f87c18"/>
    </linearGradient>
    <linearGradient id="linear-gradient25" x1="1986" y1="1336.8" x2="1861.9" y2="581.9" xlink:href="#linear-gradient3"/>
    <linearGradient id="linear-gradient26" x1="1438.6" y1="895" x2="1513.3" y2="895" xlink:href="#linear-gradient24"/>
    <linearGradient id="linear-gradient27" x1="1248.1" y1="659.7" x2="1644.3" y2="659.7" xlink:href="#linear-gradient1"/>
    <linearGradient id="linear-gradient28" x1="1400.2" y1="438.1" x2="1122.9" y2="708.2" xlink:href="#linear-gradient24"/>
    <linearGradient id="linear-gradient29" x1="816" y1="301.3" x2="721.3" y2="393.5" gradientTransform="translate(2020.7) rotate(-180) scale(1 -1)" xlink:href="#linear-gradient15"/>
    <linearGradient id="linear-gradient30" x1="831.1" y1="270.9" x2="709.1" y2="389.7" gradientTransform="translate(2020.7) rotate(-180) scale(1 -1)" xlink:href="#linear-gradient"/>
    <linearGradient id="linear-gradient31" x1="1436.4" y1="642.1" x2="1503.9" y2="642.1" xlink:href="#linear-gradient15"/>
    <linearGradient id="linear-gradient32" x1="1131" y1="740.6" x2="1200.8" y2="740.6" xlink:href="#linear-gradient15"/>
    <linearGradient id="linear-gradient33" x1="658" y1="764.5" x2="780.3" y2="764.5" xlink:href="#linear-gradient"/>
    <linearGradient id="linear-gradient34" x1="613" y1="979.5" x2="983.3" y2="979.5" xlink:href="#linear-gradient24"/>
    <linearGradient id="linear-gradient35" x1="975.1" y1="981.2" x2="1054.3" y2="981.2" xlink:href="#linear-gradient15"/>
    <linearGradient id="linear-gradient36" x1="2108.1" y1="1176.1" x2="2231.6" y2="1176.1" xlink:href="#linear-gradient"/>
    <linearGradient id="linear-gradient37" x1="2124.5" y1="1330" x2="2246.3" y2="1330" xlink:href="#linear-gradient"/>
    <linearGradient id="linear-gradient38" x1="2477.1" y1="1505.7" x2="2686.4" y2="1505.7" xlink:href="#linear-gradient"/>
    <linearGradient id="linear-gradient39" x1="2237.5" y1="1035.7" x2="2026.1" y2="1863.4" xlink:href="#linear-gradient"/>
    <linearGradient id="linear-gradient40" x1="2282.9" y1="1505.7" x2="2713.4" y2="1505.7" xlink:href="#linear-gradient1"/>
    <linearGradient id="linear-gradient41" x1="2097" y1="1108" x2="2309.3" y2="1108" xlink:href="#linear-gradient3"/>
    <linearGradient id="linear-gradient42" x1="2521.6" y1="1108" x2="2309.3" y2="1108" xlink:href="#linear-gradient1"/>
    <linearGradient id="linear-gradient43" x1="1904.1" y1="1505.9" x2="2479.5" y2="1505.9" xlink:href="#linear-gradient3"/>
    <linearGradient id="linear-gradient44" x1="1940.5" y1="779.7" x2="2341.2" y2="779.7" xlink:href="#linear-gradient3"/>
    <linearGradient id="linear-gradient45" x1="2341.2" y1="642.9" x2="1971.5" y2="642.9" xlink:href="#linear-gradient3"/>
    <linearGradient id="linear-gradient46" x1="1950.6" y1="1163.9" x2="2331.1" y2="1163.9" xlink:href="#linear-gradient"/>
    <linearGradient id="linear-gradient47" x1="1941.9" y1="948.2" x2="2150.4" y2="948.2" xlink:href="#linear-gradient15"/>
    <linearGradient id="linear-gradient48" x1="2168.2" y1="666" x2="2226.1" y2="666" xlink:href="#linear-gradient15"/>
    <linearGradient id="linear-gradient49" x1="2162.2" y1="672.6" x2="2372.7" y2="672.6" xlink:href="#linear-gradient"/>
    <linearGradient id="linear-gradient50" x1="1943.3" y1="1370.1" x2="2065.1" y2="1370.1" xlink:href="#linear-gradient"/>
    <linearGradient id="linear-gradient51" x1="182" y1="2133.9" x2="474.5" y2="2133.9" xlink:href="#linear-gradient3"/>
    <linearGradient id="linear-gradient52" x1="171.6" y1="2141" x2="192.4" y2="2141" xlink:href="#linear-gradient"/>
    <linearGradient id="linear-gradient53" x1="650.9" y1="2055.1" x2="579.9" y2="2188.7" xlink:href="#linear-gradient3"/>
    <linearGradient id="linear-gradient54" x1="463.9" y1="2105.7" x2="766.3" y2="2105.7" xlink:href="#linear-gradient"/>
    <linearGradient id="linear-gradient55" x1="1543.1" y1="1347.6" x2="1259.1" y2="1490.9" xlink:href="#linear-gradient3"/>
    <linearGradient id="linear-gradient56" x1="1371.3" y1="1644.3" x2="1200.7" y2="1730.4" xlink:href="#linear-gradient"/>
    <linearGradient id="linear-gradient57" x1="1551.3" y1="1601.8" x2="1368" y2="1694.3" gradientTransform="translate(-127.3 45) rotate(-2.4)" xlink:href="#linear-gradient"/>
    <linearGradient id="linear-gradient58" x1="1651.5" y1="1871.5" x2="942.2" y2="1925.7" xlink:href="#linear-gradient"/>
    <linearGradient id="linear-gradient59" x1="1682.8" y1="1900.8" x2="764.2" y2="1900.8" xlink:href="#linear-gradient3"/>
    <linearGradient id="linear-gradient60" x1="1280.3" y1="1298.3" x2="1205.2" y2="1292" xlink:href="#linear-gradient15"/>
    <linearGradient id="linear-gradient61" x1="1280.8" y1="1203.6" x2="1180.9" y2="1300.9" xlink:href="#linear-gradient"/>
    <linearGradient id="linear-gradient62" x1="1234.4" y1="1652.7" x2="1151.6" y2="1694.5" xlink:href="#linear-gradient15"/>
    <linearGradient id="linear-gradient63" x1="1563.9" y1="1630.5" x2="1420.5" y2="1702.9" xlink:href="#linear-gradient15"/>
    <linearGradient id="linear-gradient64" x1="1081.1" y1="1799.2" x2="1062.8" y2="1943" gradientTransform="translate(1837.5) rotate(-180) scale(1 -1)" xlink:href="#linear-gradient3"/>
    <linearGradient id="linear-gradient65" x1="1051.9" y1="1824.9" x2="1438" y2="1824.9" gradientTransform="translate(1837.5) rotate(-180) scale(1 -1)" xlink:href="#linear-gradient3"/>
    <linearGradient id="linear-gradient66" x1="1453.7" y1="1907" x2="1051.2" y2="1907" gradientTransform="translate(1837.5) rotate(-180) scale(1 -1)" xlink:href="#linear-gradient3"/>
    <linearGradient id="linear-gradient67" x1="1118.4" y1="1735.4" x2="1106.2" y2="1830.9" gradientTransform="translate(1837.5) rotate(-180) scale(1 -1)" xlink:href="#linear-gradient24"/>
    <linearGradient id="linear-gradient68" x1="1096.3" y1="1752.3" x2="1407.7" y2="1752.3" gradientTransform="translate(1837.5) rotate(-180) scale(1 -1)" xlink:href="#linear-gradient24"/>
    <linearGradient id="linear-gradient69" x1="1420.4" y1="1807.2" x2="1095.7" y2="1807.2" gradientTransform="translate(1837.5) rotate(-180) scale(1 -1)" xlink:href="#linear-gradient24"/>
    <linearGradient id="linear-gradient70" x1="1137.2" y1="1691.9" x2="1128.9" y2="1756.6" gradientTransform="translate(1837.5) rotate(-180) scale(1 -1)" xlink:href="#linear-gradient3"/>
    <linearGradient id="linear-gradient71" x1="1120.4" y1="1703.2" x2="1368.5" y2="1703.2" gradientTransform="translate(1837.5) rotate(-180) scale(1 -1)" xlink:href="#linear-gradient3"/>
    <linearGradient id="linear-gradient72" x1="1378.6" y1="1740.7" x2="1119.9" y2="1740.7" gradientTransform="translate(1837.5) rotate(-180) scale(1 -1)" xlink:href="#linear-gradient3"/>
    <linearGradient id="linear-gradient73" x1="747.7" y1="2142.8" x2="1755.3" y2="2142.8" xlink:href="#linear-gradient24"/>
    <linearGradient id="linear-gradient74" x1="1111.4" y1="2096.7" x2="1332.6" y2="2096.7" xlink:href="#linear-gradient3"/>
    <linearGradient id="linear-gradient75" x1="1090.7" y1="2189.6" x2="1332.6" y2="2189.6" xlink:href="#linear-gradient3"/>
    <linearGradient id="linear-gradient76" x1="1120.7" y1="2094.9" x2="1293.9" y2="2094.9" xlink:href="#linear-gradient3"/>
    <linearGradient id="linear-gradient77" x1="1276.5" y1="2111.4" x2="1305.2" y2="2111.4" xlink:href="#linear-gradient3"/>
    <linearGradient id="linear-gradient78" x1="2021.8" y1="2225.7" x2="1892.4" y2="2065" gradientUnits="userSpaceOnUse">
      <stop offset="0" stop-color="#e5e5e5"/>
      <stop offset="1" stop-color="#f9f9f8"/>
    </linearGradient>
    <linearGradient id="linear-gradient79" x1="1967.7" y1="2072" x2="2446.9" y2="2072" xlink:href="#linear-gradient78"/>
    <linearGradient id="linear-gradient80" x1="2217.9" y1="2240.4" x2="2217.9" y2="1984.6" xlink:href="#linear-gradient78"/>
    <linearGradient id="linear-gradient81" x1="1778.7" y1="2151" x2="2015.1" y2="2151" xlink:href="#linear-gradient78"/>
  </defs>
  <rect class="st123" width="3000" height="2657.7"/>
  <g>
    <g class="st125">
      <ellipse class="st113" cx="2288.2" cy="1885.9" rx="581.5" ry="95"/>
      <ellipse class="st87" cx="2288.2" cy="1885.9" rx="571.4" ry="93.4"/>
      <ellipse class="st85" cx="2288.2" cy="1885.9" rx="561.3" ry="91.7"/>
      <ellipse class="st103" cx="2288.2" cy="1885.9" rx="551.2" ry="90.1"/>
      <ellipse class="st86" cx="2288.2" cy="1885.9" rx="541" ry="88.4"/>
      <ellipse class="st108" cx="2288.2" cy="1885.9" rx="530.9" ry="86.8"/>
      <ellipse class="st106" cx="2288.2" cy="1885.9" rx="520.8" ry="85.1"/>
      <ellipse class="st104" cx="2288.2" cy="1885.9" rx="510.7" ry="83.5"/>
      <ellipse class="st105" cx="2288.2" cy="1885.9" rx="500.6" ry="81.8"/>
      <ellipse class="st107" cx="2288.2" cy="1885.9" rx="490.5" ry="80.2"/>
      <ellipse class="st92" cx="2288.2" cy="1885.9" rx="480.4" ry="78.5"/>
      <ellipse class="st88" cx="2288.2" cy="1885.9" rx="470.3" ry="76.9"/>
      <ellipse class="st89" cx="2288.2" cy="1885.9" rx="460.2" ry="75.2"/>
      <ellipse class="st94" cx="2288.2" cy="1885.9" rx="450.1" ry="73.5"/>
      <ellipse class="st110" cx="2288.2" cy="1885.9" rx="440" ry="71.9"/>
      <ellipse class="st109" cx="2288.2" cy="1885.9" rx="429.8" ry="70.2"/>
      <ellipse class="st112" cx="2288.2" cy="1885.9" rx="419.7" ry="68.6"/>
      <ellipse class="st111" cx="2288.2" cy="1885.9" rx="409.6" ry="66.9"/>
      <ellipse class="st90" cx="2288.2" cy="1885.9" rx="399.5" ry="65.3"/>
      <ellipse class="st91" cx="2288.2" cy="1885.9" rx="389.4" ry="63.6"/>
      <ellipse class="st100" cx="2288.2" cy="1885.9" rx="379.3" ry="62"/>
      <ellipse class="st99" cx="2288.2" cy="1885.9" rx="369.2" ry="60.3"/>
      <ellipse class="st97" cx="2288.2" cy="1885.9" rx="359.1" ry="58.7"/>
      <ellipse class="st96" cx="2288.2" cy="1885.9" rx="349" ry="57"/>
      <ellipse class="st98" cx="2288.2" cy="1885.9" rx="338.9" ry="55.4"/>
      <ellipse class="st102" cx="2288.2" cy="1885.9" rx="328.8" ry="53.7"/>
      <ellipse class="st101" cx="2288.2" cy="1885.9" rx="318.6" ry="52.1"/>
      <ellipse class="st95" cx="2288.2" cy="1885.9" rx="308.5" ry="50.4"/>
      <ellipse class="st93" cx="2288.2" cy="1885.9" rx="298.4" ry="48.8"/>
      <ellipse class="st114" cx="2288.2" cy="1885.9" rx="288.3" ry="47.1"/>
    </g>
    <g class="st125">
      <ellipse class="st113" cx="1651.6" cy="1688.3" rx="581.5" ry="95"/>
      <ellipse class="st87" cx="1651.6" cy="1688.3" rx="571.4" ry="93.4"/>
      <ellipse class="st85" cx="1651.6" cy="1688.3" rx="561.3" ry="91.7"/>
      <ellipse class="st103" cx="1651.6" cy="1688.3" rx="551.2" ry="90.1"/>
      <ellipse class="st86" cx="1651.6" cy="1688.3" rx="541" ry="88.4"/>
      <ellipse class="st108" cx="1651.6" cy="1688.3" rx="530.9" ry="86.8"/>
      <ellipse class="st106" cx="1651.6" cy="1688.3" rx="520.8" ry="85.1"/>
      <ellipse class="st104" cx="1651.6" cy="1688.3" rx="510.7" ry="83.5"/>
      <ellipse class="st105" cx="1651.6" cy="1688.3" rx="500.6" ry="81.8"/>
      <ellipse class="st107" cx="1651.6" cy="1688.3" rx="490.5" ry="80.2"/>
      <ellipse class="st92" cx="1651.6" cy="1688.3" rx="480.4" ry="78.5"/>
      <ellipse class="st88" cx="1651.6" cy="1688.3" rx="470.3" ry="76.9"/>
      <ellipse class="st89" cx="1651.6" cy="1688.3" rx="460.2" ry="75.2"/>
      <ellipse class="st94" cx="1651.6" cy="1688.3" rx="450.1" ry="73.5"/>
      <ellipse class="st110" cx="1651.6" cy="1688.3" rx="440" ry="71.9"/>
      <ellipse class="st109" cx="1651.6" cy="1688.3" rx="429.8" ry="70.2"/>
      <ellipse class="st112" cx="1651.6" cy="1688.3" rx="419.7" ry="68.6"/>
      <ellipse class="st111" cx="1651.6" cy="1688.3" rx="409.6" ry="66.9"/>
      <ellipse class="st90" cx="1651.6" cy="1688.3" rx="399.5" ry="65.3"/>
      <ellipse class="st91" cx="1651.6" cy="1688.3" rx="389.4" ry="63.6"/>
      <ellipse class="st100" cx="1651.6" cy="1688.3" rx="379.3" ry="62"/>
      <ellipse class="st99" cx="1651.6" cy="1688.3" rx="369.2" ry="60.3"/>
      <ellipse class="st97" cx="1651.6" cy="1688.3" rx="359.1" ry="58.7"/>
      <ellipse class="st96" cx="1651.6" cy="1688.3" rx="349" ry="57"/>
      <ellipse class="st98" cx="1651.6" cy="1688.3" rx="338.9" ry="55.4"/>
      <ellipse class="st102" cx="1651.6" cy="1688.3" rx="328.8" ry="53.7"/>
      <ellipse class="st101" cx="1651.6" cy="1688.3" rx="318.6" ry="52.1"/>
      <ellipse class="st95" cx="1651.6" cy="1688.3" rx="308.5" ry="50.4"/>
      <ellipse class="st93" cx="1651.6" cy="1688.3" rx="298.4" ry="48.8"/>
      <ellipse class="st114" cx="1651.6" cy="1688.3" rx="288.3" ry="47.1"/>
    </g>
    <g class="st125">
      <ellipse class="st113" cx="2169.9" cy="2220.6" rx="581.5" ry="95"/>
      <ellipse class="st87" cx="2169.9" cy="2220.6" rx="571.4" ry="93.4"/>
      <ellipse class="st85" cx="2169.9" cy="2220.6" rx="561.3" ry="91.7"/>
      <ellipse class="st103" cx="2169.9" cy="2220.6" rx="551.2" ry="90.1"/>
      <ellipse class="st86" cx="2169.9" cy="2220.6" rx="541" ry="88.4"/>
      <ellipse class="st108" cx="2169.9" cy="2220.6" rx="530.9" ry="86.8"/>
      <ellipse class="st106" cx="2169.9" cy="2220.6" rx="520.8" ry="85.1"/>
      <ellipse class="st104" cx="2169.9" cy="2220.6" rx="510.7" ry="83.5"/>
      <ellipse class="st105" cx="2169.9" cy="2220.6" rx="500.6" ry="81.8"/>
      <ellipse class="st107" cx="2169.9" cy="2220.6" rx="490.5" ry="80.2"/>
      <ellipse class="st92" cx="2169.9" cy="2220.6" rx="480.4" ry="78.5"/>
      <ellipse class="st88" cx="2169.9" cy="2220.6" rx="470.3" ry="76.9"/>
      <ellipse class="st89" cx="2169.9" cy="2220.6" rx="460.2" ry="75.2"/>
      <ellipse class="st94" cx="2169.9" cy="2220.6" rx="450.1" ry="73.5"/>
      <ellipse class="st110" cx="2169.9" cy="2220.6" rx="440" ry="71.9"/>
      <ellipse class="st109" cx="2169.9" cy="2220.6" rx="429.8" ry="70.2"/>
      <ellipse class="st112" cx="2169.9" cy="2220.6" rx="419.7" ry="68.6"/>
      <ellipse class="st111" cx="2169.9" cy="2220.6" rx="409.6" ry="66.9"/>
      <ellipse class="st90" cx="2169.9" cy="2220.6" rx="399.5" ry="65.3"/>
      <ellipse class="st91" cx="2169.9" cy="2220.6" rx="389.4" ry="63.6"/>
      <ellipse class="st100" cx="2169.9" cy="2220.6" rx="379.3" ry="62"/>
      <ellipse class="st99" cx="2169.9" cy="2220.6" rx="369.2" ry="60.3"/>
      <ellipse class="st97" cx="2169.9" cy="2220.6" rx="359.1" ry="58.7"/>
      <ellipse class="st96" cx="2169.9" cy="2220.6" rx="349" ry="57"/>
      <ellipse class="st98" cx="2169.9" cy="2220.6" rx="338.9" ry="55.4"/>
      <ellipse class="st102" cx="2169.9" cy="2220.6" rx="328.8" ry="53.7"/>
      <ellipse class="st101" cx="2169.9" cy="2220.6" rx="318.6" ry="52.1"/>
      <ellipse class="st95" cx="2169.9" cy="2220.6" rx="308.5" ry="50.4"/>
      <ellipse class="st93" cx="2169.9" cy="2220.6" rx="298.4" ry="48.8"/>
      <ellipse class="st114" cx="2169.9" cy="2220.6" rx="288.3" ry="47.1"/>
    </g>
    <g class="st125">
      <ellipse class="st113" cx="1199.1" cy="2315.7" rx="581.5" ry="95"/>
      <ellipse class="st87" cx="1199.1" cy="2315.7" rx="571.4" ry="93.4"/>
      <ellipse class="st85" cx="1199.1" cy="2315.7" rx="561.3" ry="91.7"/>
      <ellipse class="st103" cx="1199.1" cy="2315.7" rx="551.2" ry="90.1"/>
      <ellipse class="st86" cx="1199.1" cy="2315.7" rx="541" ry="88.4"/>
      <ellipse class="st108" cx="1199.1" cy="2315.7" rx="530.9" ry="86.8"/>
      <ellipse class="st106" cx="1199.1" cy="2315.7" rx="520.8" ry="85.1"/>
      <ellipse class="st104" cx="1199.1" cy="2315.7" rx="510.7" ry="83.5"/>
      <ellipse class="st105" cx="1199.1" cy="2315.7" rx="500.6" ry="81.8"/>
      <ellipse class="st107" cx="1199.1" cy="2315.7" rx="490.5" ry="80.2"/>
      <ellipse class="st92" cx="1199.1" cy="2315.7" rx="480.4" ry="78.5"/>
      <ellipse class="st88" cx="1199.1" cy="2315.7" rx="470.3" ry="76.9"/>
      <ellipse class="st89" cx="1199.1" cy="2315.7" rx="460.2" ry="75.2"/>
      <ellipse class="st94" cx="1199.1" cy="2315.7" rx="450.1" ry="73.5"/>
      <ellipse class="st110" cx="1199.1" cy="2315.7" rx="440" ry="71.9"/>
      <ellipse class="st109" cx="1199.1" cy="2315.7" rx="429.8" ry="70.2"/>
      <ellipse class="st112" cx="1199.1" cy="2315.7" rx="419.7" ry="68.6"/>
      <ellipse class="st111" cx="1199.1" cy="2315.7" rx="409.6" ry="66.9"/>
      <ellipse class="st90" cx="1199.1" cy="2315.7" rx="399.5" ry="65.3"/>
      <ellipse class="st91" cx="1199.1" cy="2315.7" rx="389.4" ry="63.6"/>
      <ellipse class="st100" cx="1199.1" cy="2315.7" rx="379.3" ry="62"/>
      <ellipse class="st99" cx="1199.1" cy="2315.7" rx="369.2" ry="60.3"/>
      <ellipse class="st97" cx="1199.1" cy="2315.7" rx="359.1" ry="58.7"/>
      <ellipse class="st96" cx="1199.1" cy="2315.7" rx="349" ry="57"/>
      <ellipse class="st98" cx="1199.1" cy="2315.7" rx="338.9" ry="55.4"/>
      <ellipse class="st102" cx="1199.1" cy="2315.7" rx="328.8" ry="53.7"/>
      <ellipse class="st101" cx="1199.1" cy="2315.7" rx="318.6" ry="52.1"/>
      <ellipse class="st95" cx="1199.1" cy="2315.7" rx="308.5" ry="50.4"/>
      <ellipse class="st93" cx="1199.1" cy="2315.7" rx="298.4" ry="48.8"/>
      <ellipse class="st114" cx="1199.1" cy="2315.7" rx="288.3" ry="47.1"/>
    </g>
    <g class="st125">
      <ellipse class="st113" cx="514" cy="2240.3" rx="383.8" ry="95"/>
      <ellipse class="st87" cx="514" cy="2240.3" rx="377.1" ry="93.4"/>
      <ellipse class="st85" cx="514" cy="2240.3" rx="370.4" ry="91.7"/>
      <ellipse class="st103" cx="514" cy="2240.3" rx="363.7" ry="90.1"/>
      <ellipse class="st86" cx="514" cy="2240.3" rx="357.1" ry="88.4"/>
      <ellipse class="st108" cx="514" cy="2240.3" rx="350.4" ry="86.8"/>
      <ellipse class="st106" cx="514" cy="2240.3" rx="343.7" ry="85.1"/>
      <ellipse class="st104" cx="514" cy="2240.3" rx="337.1" ry="83.5"/>
      <ellipse class="st105" cx="514" cy="2240.3" rx="330.4" ry="81.8"/>
      <ellipse class="st107" cx="514" cy="2240.3" rx="323.7" ry="80.2"/>
      <ellipse class="st92" cx="514" cy="2240.3" rx="317" ry="78.5"/>
      <ellipse class="st88" cx="514" cy="2240.3" rx="310.4" ry="76.9"/>
      <ellipse class="st89" cx="514" cy="2240.3" rx="303.7" ry="75.2"/>
      <ellipse class="st94" cx="514" cy="2240.3" rx="297" ry="73.5"/>
      <ellipse class="st110" cx="514" cy="2240.3" rx="290.4" ry="71.9"/>
      <ellipse class="st109" cx="514" cy="2240.3" rx="283.7" ry="70.2"/>
      <ellipse class="st112" cx="514" cy="2240.3" rx="277" ry="68.6"/>
      <ellipse class="st111" cx="514" cy="2240.3" rx="270.3" ry="66.9"/>
      <ellipse class="st90" cx="514" cy="2240.3" rx="263.7" ry="65.3"/>
      <ellipse class="st91" cx="514" cy="2240.3" rx="257" ry="63.6"/>
      <ellipse class="st100" cx="514" cy="2240.3" rx="250.3" ry="62"/>
      <ellipse class="st99" cx="514" cy="2240.3" rx="243.7" ry="60.3"/>
      <ellipse class="st97" cx="514" cy="2240.3" rx="237" ry="58.7"/>
      <ellipse class="st96" cx="514" cy="2240.3" rx="230.3" ry="57"/>
      <ellipse class="st98" cx="514" cy="2240.3" rx="223.6" ry="55.4"/>
      <ellipse class="st102" cx="514" cy="2240.3" rx="217" ry="53.7"/>
      <ellipse class="st101" cx="514" cy="2240.3" rx="210.3" ry="52.1"/>
      <ellipse class="st95" cx="514" cy="2240.3" rx="203.6" ry="50.4"/>
      <ellipse class="st93" cx="514" cy="2240.3" rx="197" ry="48.8"/>
      <ellipse class="st114" cx="514" cy="2240.3" rx="190.3" ry="47.1"/>
    </g>
    <g class="st125">
      <ellipse class="st113" cx="565.7" cy="2028.1" rx="383.8" ry="95"/>
      <ellipse class="st87" cx="565.7" cy="2028.1" rx="377.1" ry="93.4"/>
      <ellipse class="st85" cx="565.7" cy="2028.1" rx="370.4" ry="91.7"/>
      <ellipse class="st103" cx="565.7" cy="2028.1" rx="363.7" ry="90.1"/>
      <ellipse class="st86" cx="565.7" cy="2028.1" rx="357.1" ry="88.4"/>
      <ellipse class="st108" cx="565.7" cy="2028.1" rx="350.4" ry="86.8"/>
      <ellipse class="st106" cx="565.7" cy="2028.1" rx="343.7" ry="85.1"/>
      <ellipse class="st104" cx="565.7" cy="2028.1" rx="337.1" ry="83.5"/>
      <ellipse class="st105" cx="565.7" cy="2028.1" rx="330.4" ry="81.8"/>
      <ellipse class="st107" cx="565.7" cy="2028.1" rx="323.7" ry="80.2"/>
      <ellipse class="st92" cx="565.7" cy="2028.1" rx="317" ry="78.5"/>
      <ellipse class="st88" cx="565.7" cy="2028.1" rx="310.4" ry="76.9"/>
      <ellipse class="st89" cx="565.7" cy="2028.1" rx="303.7" ry="75.2"/>
      <ellipse class="st94" cx="565.7" cy="2028.1" rx="297" ry="73.5"/>
      <ellipse class="st110" cx="565.7" cy="2028.1" rx="290.4" ry="71.9"/>
      <ellipse class="st109" cx="565.7" cy="2028.1" rx="283.7" ry="70.2"/>
      <ellipse class="st112" cx="565.7" cy="2028.1" rx="277" ry="68.6"/>
      <ellipse class="st111" cx="565.7" cy="2028.1" rx="270.3" ry="66.9"/>
      <ellipse class="st90" cx="565.7" cy="2028.1" rx="263.7" ry="65.3"/>
      <ellipse class="st91" cx="565.7" cy="2028.1" rx="257" ry="63.6"/>
      <ellipse class="st100" cx="565.7" cy="2028.1" rx="250.3" ry="62"/>
      <ellipse class="st99" cx="565.7" cy="2028.1" rx="243.7" ry="60.3"/>
      <ellipse class="st97" cx="565.7" cy="2028.1" rx="237" ry="58.7"/>
      <ellipse class="st96" cx="565.7" cy="2028.1" rx="230.3" ry="57"/>
      <ellipse class="st98" cx="565.7" cy="2028.1" rx="223.6" ry="55.4"/>
      <ellipse class="st102" cx="565.7" cy="2028.1" rx="217" ry="53.7"/>
      <ellipse class="st101" cx="565.7" cy="2028.1" rx="210.3" ry="52.1"/>
      <ellipse class="st95" cx="565.7" cy="2028.1" rx="203.6" ry="50.4"/>
      <ellipse class="st93" cx="565.7" cy="2028.1" rx="197" ry="48.8"/>
      <ellipse class="st114" cx="565.7" cy="2028.1" rx="190.3" ry="47.1"/>
    </g>
    <g class="st125">
      <ellipse class="st113" cx="584.2" cy="1543.5" rx="383.8" ry="95"/>
      <ellipse class="st87" cx="584.2" cy="1543.5" rx="377.1" ry="93.4"/>
      <ellipse class="st85" cx="584.2" cy="1543.5" rx="370.4" ry="91.7"/>
      <ellipse class="st103" cx="584.2" cy="1543.5" rx="363.7" ry="90.1"/>
      <ellipse class="st86" cx="584.2" cy="1543.5" rx="357.1" ry="88.4"/>
      <ellipse class="st108" cx="584.2" cy="1543.5" rx="350.4" ry="86.8"/>
      <ellipse class="st106" cx="584.2" cy="1543.5" rx="343.7" ry="85.1"/>
      <ellipse class="st104" cx="584.2" cy="1543.5" rx="337.1" ry="83.5"/>
      <ellipse class="st105" cx="584.2" cy="1543.5" rx="330.4" ry="81.8"/>
      <ellipse class="st107" cx="584.2" cy="1543.5" rx="323.7" ry="80.2"/>
      <ellipse class="st92" cx="584.2" cy="1543.5" rx="317" ry="78.5"/>
      <ellipse class="st88" cx="584.2" cy="1543.5" rx="310.4" ry="76.9"/>
      <ellipse class="st89" cx="584.2" cy="1543.5" rx="303.7" ry="75.2"/>
      <ellipse class="st94" cx="584.2" cy="1543.5" rx="297" ry="73.5"/>
      <ellipse class="st110" cx="584.2" cy="1543.5" rx="290.4" ry="71.9"/>
      <ellipse class="st109" cx="584.2" cy="1543.5" rx="283.7" ry="70.2"/>
      <ellipse class="st112" cx="584.2" cy="1543.5" rx="277" ry="68.6"/>
      <ellipse class="st111" cx="584.2" cy="1543.5" rx="270.3" ry="66.9"/>
      <ellipse class="st90" cx="584.2" cy="1543.5" rx="263.7" ry="65.3"/>
      <ellipse class="st91" cx="584.2" cy="1543.5" rx="257" ry="63.6"/>
      <ellipse class="st100" cx="584.2" cy="1543.5" rx="250.3" ry="62"/>
      <ellipse class="st99" cx="584.2" cy="1543.5" rx="243.7" ry="60.3"/>
      <ellipse class="st97" cx="584.2" cy="1543.5" rx="237" ry="58.7"/>
      <ellipse class="st96" cx="584.2" cy="1543.5" rx="230.3" ry="57"/>
      <ellipse class="st98" cx="584.2" cy="1543.5" rx="223.6" ry="55.4"/>
      <ellipse class="st102" cx="584.2" cy="1543.5" rx="217" ry="53.7"/>
      <ellipse class="st101" cx="584.2" cy="1543.5" rx="210.3" ry="52.1"/>
      <ellipse class="st95" cx="584.2" cy="1543.5" rx="203.6" ry="50.4"/>
      <ellipse class="st93" cx="584.2" cy="1543.5" rx="197" ry="48.8"/>
      <ellipse class="st114" cx="584.2" cy="1543.5" rx="190.3" ry="47.1"/>
    </g>
    <g>
      <path class="st83" d="M873,2014.1c-9.4,0-18.1-4.7-23.3-12.4-5.2-7.8-6.2-17.6-2.6-26.3l34.7-136.9c5.4-13,17.9-21.4,32-21.4h648.5c15.4,0,29.8,8.2,37.5,21.5l47.6,130.7c5.5,9.3,5.5,20.5.2,29.9-5.4,9.4-15.1,15-25.9,15h-748.7Z"/>
      <g>
        <path class="st3" d="M382.5,1282.2l37.2,234.8c0,5.2,30.2,9.4,67.4,9.4s67.4-4.2,67.4-9.4l37.2-234.8h-209.2Z"/>
        <ellipse class="st2" cx="487.1" cy="1282.2" rx="104.6" ry="14.7"/>
        <path class="st5" d="M737,1093.2s-91.2,0-140.3,76.1c-50.9,79.1-50,125.1-50,125.1l-34.9,2.4s-25.1-23.6,0-75.9c25.1-52.3,124.3-163.1,225.2-127.8Z"/>
        <path class="st10" d="M487.1,1296.8s1.3-122.4,80.7-185.5c79.4-63,169.2-18.2,169.2-18.2,0,0-86.9-11.9-148.2,39.6-61.3,51.6-77,164-77,164h-24.7Z"/>
        <path class="st9" d="M494.8,1296.8l-26.9-.7-25.2-.7s-3.8-48.8-33.7-98.9c-29.9-50.2-86-98-86-98,0,0,53.3-5.3,115.4,56.1,62,61.4,56.4,142.2,56.4,142.2Z"/>
        <path class="st6" d="M494.8,1296.8l-26.9-.7c-4.2-24.8-14.4-62.2-38.3-104.5-42.9-76.1-106.6-93.1-106.6-93.1,0,0,53.3-5.3,115.4,56.1,62,61.4,56.4,142.2,56.4,142.2Z"/>
        <path class="st8" d="M526.8,1295.7l-17,.3-36.1.6s-5.3-118.4-36.6-210.2c-31.3-91.9-65-105.4-65-105.4h.9c8.5,0,77,3.2,121.9,105.5,47.9,109.2,31.8,209.3,31.8,209.3Z"/>
        <path class="st7" d="M526.8,1295.7l-17,.3c-.6-45.3-7.4-121.1-39.8-197.5-47.2-111.2-90.2-117.3-96.9-117.5,8.5,0,77,3.2,121.9,105.5,47.9,109.2,31.8,209.3,31.8,209.3Z"/>
        <path class="st4" d="M515.8,1296.5s11.6-92.1,88.4-112.2c76.9-20.1,110.1,46.8,110.1,46.8,0,0-49.1-20.1-93.2-6-44.1,14.1-55.6,66.7-55.6,66.7l-49.7,4.7Z"/>
        <path class="st70" d="M467.9,1296.1s-12.7-52.4-53.6-73.1c-40.9-20.7-73.7,0-73.7,0,0,0,33.8.6,60.4,22.6,26.6,22,33.3,50.3,33.3,50.3l33.7.2Z"/>
      </g>
      <path class="st127" d="M834.1,929.9l77.7-14.8,6,28.6s-101.1,36.4-109.4,35.7c-8.3-.7-37.4-39.3-37.4-39.3l63.1-10.3Z"/>
      <path class="st69" d="M680.9,1515.6s-8,26.9-1.7,35.1c6.2,8.2,30.4,4.7,48.4,1.5,17.9-3.2,36.1.2,51.1-1,15-1.2,25.7-18.9,6.2-21.9-19.4-3-52.2-10.3-56.3-13.7-4.1-3.4-5.7-6.5-5.7-6.5l-41.9,6.5Z"/>
      <path class="st66" d="M757.4,1525s-8,26.9-1.7,35.1c6.2,8.2,30.4,4.7,48.4,1.5,17.9-3.2,36.1.2,51.1-1,15-1.2,25.7-18.9,6.2-21.9-19.4-3-52.2-10.3-56.3-13.7-4.1-3.4-5.7-6.5-5.7-6.5l-41.9,6.5Z"/>
      <path class="st65" d="M617.6,1102.6s-6.3,39.5,22.6,97.3c28.9,57.8,63.2,121.9,63.2,121.9,0,0-19.9,31.6-23.5,93-3.6,61.4-.9,100.2-.9,100.2,0,0,9,8.1,24.4,7.2s21.7-11.7,21.7-11.7c0,0-2.7-102.9,25.3-150.8,28-47.9,30.7-78.5,17.2-116.5-13.5-37.9-149.9-140.6-149.9-140.6Z"/>
      <path class="st71" d="M625.7,1107.4s-5.4,35.6,39.7,78c45.1,42.4,96.6,129.5,96.6,129.5,0,0-8.1,53.8-8.1,105.3s1.8,102.9,1.8,102.9c0,0,8.1,11.7,24.4,9,16.3-2.7,22.6-12.6,22.6-12.6,0,0,31.6-210.4,29.8-241.1s-71.3-187.2-71.3-187.2l-135.4,16.2Z"/>
      <path class="st67" d="M770.7,740.1s11.2,21.3,7.8,26c-3.4,4.7-5.3,6-3.6,9.9,1.8,3.9,9.6,14,7.5,22.9-2.1,8.8-5.5,33.3-11.7,34.6-6.2,1.3-10.4-2.6-14.3,1.3-3.9,3.9-6,15.9-6,15.9,0,0-13.3-2.6-33.5-4.2-20.3-1.6-30.4-3.1-30.4-3.1,0,0,10.1-27.8,9.1-36.1s11.4-48.4,27.6-58.8c16.1-10.4,47.6-8.3,47.6-8.3Z"/>
      <g>
        <path class="st68" d="M1131.8,486.7h914c29.7,0,53.8,24.1,53.8,53.8v1027.9c0,29.7-24.1,53.8-53.8,53.8h-914c-29.7,0-53.8-24.1-53.8-53.8V540.5c0-29.7,24.1-53.8,53.8-53.8Z" transform="translate(2643.3 -534.4) rotate(90)"/>
        <rect class="st123" x="1042.9" y="571.8" width="1091.8" height="965.4" rx="48.2" ry="48.2"/>
      </g>
      <g>
        <g class="st0">
          <path class="st121" d="M1870.4,651.3v623.5c0,22.5-18.3,40.7-40.7,40.7h-993.6c-22.4,0-40.7-18.2-40.7-40.7v-623.5c0-22.4,18.3-40.7,40.7-40.7h993.6c22.4,0,40.7,18.3,40.7,40.7Z"/>
        </g>
        <path class="st72" d="M1889.8,632.9v623.5c0,22.5-18.3,40.7-40.7,40.7h-993.6c-22.4,0-40.7-18.2-40.7-40.7v-623.5c0-22.4,18.3-40.7,40.7-40.7h993.6c22.4,0,40.7,18.3,40.7,40.7Z"/>
        <path class="st76" d="M1889.8,632.9v58.2H814.8v-58.2c0-22.4,18.3-40.7,40.7-40.7h993.6c22.4,0,40.7,18.3,40.7,40.7Z"/>
        <rect class="st123" x="1369.3" y="708.4" width="488.6" height="557.6" rx="3.2" ry="3.2"/>
        <circle class="st84" cx="888.1" cy="641" r="11.8" transform="translate(-84.7 137.8) rotate(-8.5)"/>
        <circle class="st84" cx="933.6" cy="641" r="11.8" transform="translate(-83.1 142.3) rotate(-8.3)"/>
        <circle class="st84" cx="979.1" cy="641" r="11.8" transform="translate(3.7 1287.6) rotate(-66.8)"/>
        <g>
          <path class="st123" d="M1061.3,953.2c1-5.4,1.5-11,1.5-16.8,0-5.8-.5-11.4-1.5-16.8h-23.1c-1.7-7.7-4.7-14.9-8.8-21.5l16.4-16.2c-6.4-9.3-14.5-17.4-23.7-23.8l-16.4,16.3c-6.5-4.1-13.6-7.2-21.2-8.9v-23.1c-5.3-1-10.9-1.5-16.7-1.5-5.8,0-11.4.5-16.8,1.5v23.1c-7.7,1.7-14.8,4.7-21.3,8.8l-16.3-16.4c-9.3,6.4-17.4,14.5-23.8,23.7l16.3,16.3c-4.1,6.5-7.2,13.7-8.9,21.4h-23.1c-1,5.3-1.5,10.9-1.5,16.7,0,5.8.5,11.4,1.5,16.8h23.1c1.7,7.7,4.7,14.8,8.8,21.3l-16.4,16.3c6.4,9.3,14.3,17.3,23.6,23.8l16.4-16.3c6.5,4.1,13.7,7.2,21.4,8.9v23.1c5.3,1,10.9,1.5,16.7,1.5,5.8,0,11.4-.5,16.8-1.5v-23.1c7.7-1.7,14.9-4.7,21.5-8.8l16.3,16.4c9.3-6.5,17.3-14.5,23.7-23.7l-16.3-16.4c4.1-6.5,7.2-13.6,8.9-21.2h23.1ZM967.4,978c-23.1,0-41.7-18.8-41.7-41.9,0-23.1,18.8-41.7,41.9-41.7,23.1,0,41.7,18.8,41.7,41.9,0,23.1-18.8,41.7-41.9,41.7Z"/>
          <path class="st123" d="M1351.2,903.6c1.6-8.6,2.4-17.6,2.5-26.8,0-9.2-.8-18.2-2.3-26.8h-37c-2.8-12.3-7.5-23.9-14.1-34.3l26.3-26c-10.2-14.8-23.1-27.9-37.9-38.1l-26.3,26.2c-10.4-6.6-21.8-11.5-34-14.3v-37c-8.5-1.6-17.5-2.4-26.7-2.5-9.2,0-18.2.8-26.8,2.3v37c-12.3,2.8-23.7,7.6-34.1,14.1l-26.2-26.3c-14.8,10.2-27.9,23.1-38.1,37.9l26.2,26.1c-6.6,10.4-11.5,22-14.3,34.2h-37c-1.6,8.5-2.4,17.5-2.5,26.7,0,9.2.8,18.2,2.3,26.8h37c2.8,12.3,7.6,23.7,14.1,34.1l-26.3,26.2c10.2,14.8,22.9,27.7,37.7,38.1l26.3-26.2c10.4,6.6,22,11.5,34.2,14.3v37c8.5,1.6,17.5,2.4,26.7,2.5,9.2,0,18.2-.8,26.8-2.3v-37c12.3-2.8,23.9-7.6,34.3-14.1l26.2,26.3c14.8-10.4,27.7-23.1,37.9-37.9l-26.2-26.3c6.6-10.4,11.5-21.8,14.3-34h37ZM1201,943.3c-36.9,0-66.8-30.1-66.7-67,0-36.9,30.1-66.8,67-66.7,36.9,0,66.8,30.1,66.7,67,0,36.9-30.1,66.8-67,66.7Z"/>
        </g>
        <g>
          <g class="st116">
            <path class="st122" d="M2134.1,876.6v599.8c0,17.1-14,31.1-31.3,31.1h-702.5c-17.1,0-31.1-14-31.1-31.1v-599.8c0-17.2,14-31.1,31.1-31.1h702.5c17.2,0,31.3,13.9,31.3,31.1Z"/>
          </g>
          <path class="st126" d="M2163.5,859v599.8c0,17.1-14,31.1-31.3,31.1h-702.5c-17.1,0-31.1-14-31.1-31.1v-599.8c0-17.2,14-31.1,31.1-31.1h702.5c17.2,0,31.3,13.9,31.3,31.1Z"/>
          <path class="st73" d="M2163.5,859v108.5h-764.8v-108.5c0-17.2,14-31.1,31.1-31.1h702.5c17.2,0,31.3,13.9,31.3,31.1Z"/>
          <g>
            <rect class="st74" x="1433.9" y="1000.1" width="335.2" height="384.2" rx="24.7" ry="24.7"/>
            <rect class="st75" x="1796.3" y="1000.1" width="331.9" height="384.2" rx="24.7" ry="24.7"/>
          </g>
          <g>
            <rect class="st126" x="1482.6" y="1056" width="160.4" height="18.4" rx=".6" ry=".6"/>
            <rect class="st126" x="1482.6" y="1096.2" width="225.6" height="18.4" rx=".6" ry=".6"/>
            <rect class="st126" x="1482.6" y="1136.3" width="225.6" height="18.4" rx=".6" ry=".6"/>
            <rect class="st126" x="1482.6" y="1176.5" width="225.6" height="18.4" rx=".6" ry=".6"/>
            <rect class="st126" x="1482.6" y="1216.6" width="225.6" height="18.4" rx=".6" ry=".6"/>
            <rect class="st126" x="1482.6" y="1256.7" width="225.6" height="18.4" rx=".6" ry=".6"/>
            <rect class="st126" x="1482.6" y="1296.9" width="160.4" height="18.4" rx=".6" ry=".6"/>
          </g>
          <g>
            <rect class="st126" x="1836.8" y="1056" width="160.4" height="18.4" rx=".6" ry=".6"/>
            <rect class="st126" x="1836.8" y="1096.2" width="225.6" height="18.4" rx=".6" ry=".6"/>
            <rect class="st126" x="1836.8" y="1136.3" width="225.6" height="18.4" rx=".6" ry=".6"/>
            <rect class="st126" x="1836.8" y="1176.5" width="225.6" height="18.4" rx=".6" ry=".6"/>
            <rect class="st126" x="1836.8" y="1216.6" width="225.6" height="18.4" rx=".6" ry=".6"/>
            <rect class="st126" x="1836.8" y="1256.7" width="225.6" height="18.4" rx=".6" ry=".6"/>
            <rect class="st126" x="1836.8" y="1296.9" width="160.4" height="18.4" rx=".6" ry=".6"/>
          </g>
          <circle class="st78" cx="1475.9" cy="895" r="37.3"/>
          <rect class="st126" x="1547.8" y="857.7" width="289" height="33.1" rx="1.2" ry="1.2"/>
          <rect class="st126" x="1547.8" y="909.2" width="160.4" height="18.4" rx=".6" ry=".6"/>
        </g>
        <g>
          <rect class="st126" x="883.5" y="1141" width="106.5" height="12.2" rx=".6" ry=".6"/>
          <rect class="st126" x="883.5" y="1167.7" width="439.4" height="12.2" rx=".6" ry=".6"/>
          <rect class="st126" x="883.5" y="1194.4" width="439.4" height="12.2" rx=".6" ry=".6"/>
          <rect class="st126" x="883.5" y="1221" width="439.4" height="12.2" rx=".6" ry=".6"/>
        </g>
        <g>
          <rect class="st82" x="1408.3" y="727.2" width="94.1" height="11.4" rx=".6" ry=".6"/>
          <rect class="st82" x="1408.3" y="752.1" width="388" height="11.4" rx=".6" ry=".6"/>
          <rect class="st82" x="1408.3" y="777" width="388" height="11.4" rx=".6" ry=".6"/>
          <rect class="st82" x="1408.3" y="801.9" width="388" height="11.4" rx=".6" ry=".6"/>
        </g>
      </g>
      <path class="st77" d="M1525.8,568.8l3.7-36.1c1.4-13.6,8.4-26,19.3-34.1,0,0,48.5-17.9,60.6-2.8h0l-45.4,34.5-3.2,34.8,36.3,7.3,44.8-33.3h0c10.5,11.7-18.7,49.9-18.7,49.9-16.6,12.1-37,17.8-57.4,15.9l-11.2-1-164.9,139.2v31.3c0,11.1-25.9,70.6-95.5,51.6l43.4-35-1.9-35.9-38.7-11.9-44.8,29.7h0c-18.3-30.2,29.1-66.3,29.1-66.3,13.2-10,32.6-12.7,48.7-9.3l29.2,6.1,166.6-134.5Z"/>
      <g>
        <path class="st63" d="M1131.2,442.8s80.8-41.7,150.4-33.6c41.4,4.8,98.8,33.3,138.4,55.7,28.9,16.3,49,44.6,55,77.2l11.6,62.7s-4.9,17.8-18.6,20.2c-13.8,2.4-27.5,0-27.5,0,0,0-2.5-89.6-23.7-96.9-21.2-7.3-62.1-7.2-62.1-7.2v22.8h-202.4l-21.1,21.8,42.1,121.7s-8.9,11.5-25.9,16.4c-17,4.9-24.3,4.9-24.3,4.9,0,0-51.6-140.1-52.9-154.6-1.3-14.6,61-110.9,61-110.9Z"/>
        <g>
          <path class="st64" d="M1192.9,336s-4.9-13.3-11.4-10.2c-6.5,3.1,11.7,30.9,14.2,34.9,2.5,4,5.9,55.3,54.4,59,48.5,3.7,54.1-52.5,56.5-56.8s16.1-34.6,9.3-38.9c-6.8-4.3-10.2,9-11.7,8.7-1.5-.3.3-36.8-19.2-42.9-19.5-6.2-47.6-.9-51.3,0-3.7.9-41.7,24.7-41.7,24.7l.9,21.6Z"/>
          <path class="st115" d="M1289.4,410.8v19.1s-15,13-37.8,10.9c-22.8-2.1-34.2-12.4-34.2-12.4v-30.4l72,12.8Z"/>
          <path class="st12" d="M1293.9,300.4s-11.1,24.1-50.1,25.6c-38.9,1.5-46.3-5.9-46.3-5.9,0,0,1.5,23.8,1.5,29s7.4,36.5,16.7,38.6c9.3,2.2,4.8-11.6,16.8-13.7s43.1-3.9,44.4,1.1,3.9,11.2,12.5,11.2,14-58.8,13.4-62.9c-.5-4.2,2.8-5.7,2.8-5.7l2.8,5.6s-3.6,41.6-2.4,48.6c1.2,7.1-11.1,55.4-46.5,54.6-36.1-.9-45.3-12.6-53.4-30.9-8-18.2-12.6-29.4-12.5-38,.1-8.6-1.6-23.4-1.6-23.4l-6.8-8.4s-10.7-52.1,20.2-69.1c30.9-17,67-7.5,80.3-2.6,13.3,4.9,28.4,20.4,30.3,38,1.9,17.6-.3,31.8-.3,31.8l-8.7,3.7s-6.1-5.3-8.3-13c-2.2-7.7-4.9-14.2-4.9-14.2Z"/>
        </g>
        <path class="st128" d="M1152.2,543.6s12.1-25.7,12.8-53.6c.7-27.9-21.3-49-21.3-49,0,0,26.6,19.7,28.6,41.6,2,22-11.3,61-11.3,61h-8.8Z"/>
        <path class="st128" d="M1354.6,520.8s-3.7-62.1-10.6-78.4c-7-16.3-9.4-20.3-9.4-20.3,0,0,7.6,46.2,10,70.2,2.4,24,2.1,51.3,2.1,51.3h8v-22.8Z"/>
      </g>
      <path class="st11" d="M1442.7,625.3s-6.8,12.2-6.2,13.7c.5,1.5,11.8-3.3,15.4,0,3.5,3.3,12.9,38.1,20.7,34.2,7.8-3.9,32.8-18.6,31.3-29.4s-19.5-33.2-19.5-33.2c0,0-20.1,16.1-41.6,14.7Z"/>
      <path class="st14" d="M1170.1,690.5s23.8,9.8,26.5,20c2.7,10.2,4.2,27,4.2,27,0,0-6.3,8-11.3-3.4l-5-11.4s-7.6,18.6-4.6,37.2c3,18.6-3.8,31.1-15.2,30.7-11.4-.4-25.4-22.6-28.1-43.3-2.7-20.7-5.6-40-5.6-40,0,0,28.6-9.2,39.1-16.9Z"/>
      <path class="st31" d="M780.3,721.9c0,17.2-1.8,24.2-17.2,26.8-15.3,2.6-9.4,16.9-13.3,22.1-3.9,5.2,3.6,21.1-1.3,21.1s-5.5-24.4-16.1-23.7c-10.7.8-7.3,16.6-2.9,23.7,4.4,7-1.6,21.6-25.5,25.2-23.9,3.6-36.9-29.6-44.2-43.7-7.3-14,8.6-25.2,8.6-25.2,0,0-22.6-28.1,29.9-34.8,52.5-6.8,81.9,8.6,81.9,8.6Z"/>
      <path class="st28" d="M680.4,840.4s73.1,4.6,80,11.4c6.9,6.9,0,9.1,8,12,8,2.9,17.7,7.4,24.6,14.3,6.9,6.9,79.4,103.4,86.2,103.4s89.1-7.4,89.1-7.4c0,0,12.6,4,14.3,16.6,1.7,12.6,0,21.7,0,21.7,0,0-93.1,17.7-113.1,15.4-20-2.3-92.5-59.4-92.5-59.4v125.6s-21.9,25.1-88,24.6c-66.2-.6-75.9-16-75.9-16,0,0,32-206.5,42.3-229.8,10.3-23.3,25.1-32.4,25.1-32.4Z"/>
      <path class="st30" d="M975.1,977.9s5.2-18.4,18-20.3c12.7-1.9,24.3-2.5,24.3-2.5,0,0,2.1,6-7.8,7.6-9.8,1.6-10.1,9.2,3.2,7,13.3-2.2,38.1-11.7,41.2-4.8,3.2,7-14.3,22.8-27.9,30.3-13.6,7.5-43,12.3-43,12.3,0,0,0-20.9-8-29.5Z"/>
      <g>
        <polygon class="st32" points="2164.4 1292.4 2108.1 1059.9 2201.1 1069.6 2231.6 1279.5 2164.4 1292.4"/>
        <g>
          <path class="st29" d="M2163.9,1297.3s.3,8.6-5.1,12.2c-5.4,3.5-39.7,44.2-33.6,66.3,6.1,22.1,47,2.8,53.1,0,6.1-2.8,67.1-53.5,67.1-53.5,0,0,3.7-15.3-4-29.4-7.7-14.1-14.5-16.8-14.5-16.8,0,0-39.9-12.3-63,21.3Z"/>
          <path class="st126" d="M2238.8,1308.9c-15.6-14.6-81.3,32.7-100.2,55.4-18.9,22.7-1,29.5,37.5,12.5,38.4-17,87.1-45.1,62.8-67.9Z"/>
        </g>
        <g>
          <polygon class="st13" points="2489.8 1125.8 2686.4 1885.6 2669.7 1885.6 2477.1 1125.8 2489.8 1125.8"/>
          <path class="st27" d="M2303.9,1125.8l-45.6,174.8h-179.9l45.6-174.8h-27l-192.9,759.5h27l49.7-210.1h179.9l-49.7,210.1h27l192.9-759.5h-27ZM2253.5,1319l-41.6,159.8h-179.9l41.6-159.8h179.9ZM1985.6,1656.9l41.6-159.8h179.9l-41.6,159.8h-179.9Z"/>
          <path class="st35" d="M2686.4,1885.6h27l-196.6-759.8h-27l45.6,174.8h-179.9l-45.6-174.8h-27l196.6,759.8h27l-53.5-210.4h179.9l53.5,210.4ZM2540.1,1319l41.6,159.8h-179.9l-41.6-159.8h179.9ZM2448.3,1656.9l-41.6-159.8h179.9l41.6,159.8h-179.9Z"/>
          <rect class="st36" x="2097" y="1090.2" width="212.3" height="35.6"/>
          <rect class="st37" x="2309.3" y="1090.2" width="212.3" height="35.6"/>
          <polygon class="st40" points="1904.1 1885.3 2097 1125.8 2282.9 1125.8 2479.5 1885.6 2462.8 1885.6 2270.1 1141.3 2106.7 1141.3 1916.4 1885.9 1904.1 1885.3"/>
        </g>
        <g>
          <g>
            <path class="st41" d="M2341.2,622.6v314.2c0,9-7.4,16.3-16.4,16.3h-368c-9,0-16.3-7.4-16.3-16.3v-314.2c0-9,7.4-16.3,16.3-16.3h368c9,0,16.4,7.3,16.4,16.3Z"/>
            <path class="st43" d="M2341.2,622.6v56.8h-400.7v-56.8c0-9,7.4-16.3,16.3-16.3h368c9,0,16.4,7.3,16.4,16.3Z"/>
            <g>
              <rect class="st123" x="1959" y="696.5" width="175.6" height="201.3"/>
              <rect class="st123" x="2148.9" y="696.5" width="173.9" height="201.3"/>
            </g>
            <g>
              <rect class="st82" x="1984.5" y="725.8" width="84" height="9.6" rx=".6" ry=".6"/>
              <rect class="st82" x="1984.5" y="746.8" width="118.2" height="9.6" rx=".6" ry=".6"/>
              <rect class="st82" x="1984.5" y="767.9" width="118.2" height="9.6" rx=".6" ry=".6"/>
              <rect class="st82" x="1984.5" y="788.9" width="118.2" height="9.6" rx=".6" ry=".6"/>
              <rect class="st82" x="1984.5" y="809.9" width="118.2" height="9.6" rx=".6" ry=".6"/>
              <rect class="st82" x="1984.5" y="830.9" width="118.2" height="9.6" rx=".6" ry=".6"/>
              <rect class="st82" x="1984.5" y="852" width="84" height="9.6" rx=".6" ry=".6"/>
            </g>
            <g>
              <rect class="st82" x="2170.1" y="725.8" width="84" height="9.6" rx=".6" ry=".6"/>
              <rect class="st82" x="2170.1" y="746.8" width="118.2" height="9.6" rx=".6" ry=".6"/>
              <rect class="st82" x="2170.1" y="767.9" width="118.2" height="9.6" rx=".6" ry=".6"/>
              <rect class="st82" x="2170.1" y="788.9" width="118.2" height="9.6" rx=".6" ry=".6"/>
              <rect class="st82" x="2170.1" y="809.9" width="118.2" height="9.6" rx=".6" ry=".6"/>
              <rect class="st82" x="2170.1" y="830.9" width="118.2" height="9.6" rx=".6" ry=".6"/>
              <rect class="st82" x="2170.1" y="852" width="84" height="9.6" rx=".6" ry=".6"/>
            </g>
            <circle class="st126" cx="1981" cy="641.4" r="19.5"/>
            <path class="st126" d="M2019.9,621.9h149c.7,0,1.2.5,1.2,1.2v15c0,.7-.5,1.2-1.2,1.2h-149c-.7,0-1.2-.5-1.2-1.2v-15c0-.7.5-1.2,1.2-1.2Z"/>
            <rect class="st126" x="2018.7" y="648.9" width="84" height="9.6" rx=".6" ry=".6"/>
          </g>
          <path class="st38" d="M2145.3,990.3s-166.5,27.1-186.4,41.6c-20,14.5,1.3,107.6,10.8,168.7,9.5,61.1,13.1,136.7,13.1,136.7,0,0,14.5-19.4,38.8-20.4l24.2-1s-9.2-227.9,8.1-226.9,151.3,16.5,229.8-2.9c78.5-19.4,35.9-93.9,35.9-93.9,0,0-102.6,21.2-174.3-2Z"/>
          <path class="st42" d="M2097.7,946s-116.5-1.4-128-13.5c-11.5-12.1.6-32.7-13.8-34.5-14.3-1.7,1.9,37.7-5.3,35.8-7.3-1.9-26.8,22.4,35.7,42.1,62.5,19.7,130.8,25.9,139.9,21s24.1-42.1,24.1-42.1c0,0-18.7,8.2-52.7-8.8Z"/>
          <path class="st39" d="M2180.3,610.8s-15.7,18.9-12.3,23.6c3.4,4.7,6,8.3,4.3,12.2-1.8,3.9-5.8,14.1-3.7,22.9,2.1,8.8,5.5,33.3,11.7,34.6,6.2,1.3,10.4-2.6,14.3,1.3,3.9,3.9,6,15.9,6,15.9,0,0,13.3-2.6,33.5-4.2s30.4-3.1,30.4-3.1c0,0-10.1-27.8-9.1-36.1,1-8.3-11.4-48.4-27.6-58.8-16.1-10.4-47.6-8.3-47.6-8.3Z"/>
          <path class="st126" d="M2337,739.7c-15.9-5.5-64.3-17.2-72.4-22.9-8-5.6-53.4.6-62.1,4.1-8.7,3.5-6,9.9-18.1,14.1-12.1,4.2-50.4,4-62.5,23s-27.6,177.1-27.6,177.1c0,0,2.1,17,27.6,22,25.5,5,28.4-5,28.4-5v41.1s20.3,18.1,83.3,15.3,85.9-16.9,85.9-16.9c0,0-2.7-41.5,5.4-45.7,8-4.2,29.1,3,33.1-26.6,4-29.6-7.8-175-21.1-179.6Z"/>
          <path class="st44" d="M2167,597.3c-11.8,17.9-2.4,43,33.7,45.5,36.2,2.5,12.3,20.1,14.4,38.1,2.1,18,23.5,23.3,15.4,39.6-8.1,16.3-10.5,52.3,49.5,49.4,59.9-2.9,95.4-26.9,92.5-58.3-2.9-31.3-72.4-20.8-71.9-58.7.5-37.9-.5-76-62.3-77.8-61.8-1.8-65,12.6-71.3,22.2Z"/>
          <path class="st124" d="M2150.4,952.2s19.7-105.6,19.7-142.3v-36.6s13.2,31.9,6.3,62.2c-6.9,30.3-14.2,164.2-14.2,164.2l-11.9-6.4v-41.1Z"/>
          <path class="st124" d="M2321.1,953.1s3.7-104.3,1.5-131.1c-2.2-26.8-9.8-33.1-9.8-33.1,0,0,2.2,21.8,2.2,46.9s-2.2,161.1-2.2,161.1l6.8-5.2,1.5-38.5Z"/>
          <g>
            <path class="st53" d="M1982.7,1337.4s.3,8.6-5.1,12.2c-5.4,3.5-39.7,44.2-33.6,66.3,6.1,22.1,47,2.8,53.1,0,6.1-2.8,67.1-53.5,67.1-53.5,0,0,3.7-15.3-4-29.4-7.7-14.1-14.5-16.8-14.5-16.8,0,0-39.9-12.3-63,21.3Z"/>
            <path class="st126" d="M2057.7,1348.9c-15.6-14.6-81.3,32.7-100.2,55.4-18.9,22.7-1,29.5,37.5,12.5,38.4-17,87.1-45.1,62.8-67.9Z"/>
          </g>
        </g>
      </g>
      <g>
        <polygon class="st54" points="474.5 2147.9 182 2162 182 2119.9 474.5 2105.7 474.5 2147.9"/>
        <ellipse class="st55" cx="182" cy="2141" rx="10.4" ry="21.1"/>
        <path class="st57" d="M766,2115.8c.2-1.1.3-2.2.3-3.4,0-31.6-67.7-57.2-151.2-57.2s-151.2,25.6-151.2,57.2.1,2.2.3,3.4c-.2,1.1-.3,2.2-.3,3.4s.1,2.2.3,3.4c-.2,1.1-.3,2.2-.3,3.4s.1,2.2.3,3.4c-.2,1.1-.3,2.2-.3,3.4,0,31.6,67.7,57.2,151.2,57.2s151.2-25.6,151.2-57.2-.1-2.2-.3-3.4c.2-1.1.3-2.2.3-3.4s-.1-2.2-.3-3.4c.2-1.1.3-2.2.3-3.4s-.1-2.2-.3-3.4ZM615.1,2161.2c-62,0-113.8-16.6-126.1-38.7,12.2-22.1,64-38.7,126.1-38.7s113.8,16.6,126.1,38.7c-12.2,22.1-64,38.7-126.1,38.7Z"/>
        <path class="st59" d="M615.1,2048.5c-83.5,0-151.2,25.6-151.2,57.2s67.7,57.2,151.2,57.2,151.2-25.6,151.2-57.2-67.7-57.2-151.2-57.2ZM615.1,2154.5c-71.2,0-128.8-21.8-128.8-48.7s57.7-48.7,128.8-48.7,128.8,21.8,128.8,48.7-57.7,48.7-128.8,48.7Z"/>
      </g>
      <path class="st61" d="M1055.7,1541.9s9.6,13.1,37.9,13.9c28.2.9,31.7,0,31.7,0l12.4,76.6s39.9,31,114.3,21.4c74.4-9.6,80.8-14.5,80.8-14.5l5.3-126,22.7,59.2s10.1,7.6,37.7-3.4l27.7-11s-62.6-176.7-85.3-193.3c-22.7-16.5-120.6-16.8-169.5-7.9-48.9,9-55.4,24.5-63,39.6-7.6,15.2-52.7,145.3-52.7,145.3Z"/>
      <path class="st58" d="M1252,1653.8s-19.8,178.2-26.7,190.9c-6.9,12.7-70.1,30.8-90.2,17-20.2-13.8-50.4-101.5-50.4-101.5,0,0,3.2-19.5,25.5-22.7,22.3-3.2,16.5-2.7,16.5-2.7l11.1-102.4s43.4,24.2,114.3,21.4Z"/>
      <path class="st60" d="M1343.2,1564.8c-6-19.3-25.5-31.3-45.5-28.5-34.5,4.9-52.6,28.1-54.3,92.4-2,79.7-1,199.8-1,201.5,0,1.8,16.6,11.8,40,10.2,23.4-1.6,37.8-8.7,37.8-8.7,0,0,27.8-177.9,28-229.4,0-15.7-2.1-28-5-37.6Z"/>
      <path class="st62" d="M873,1999.3c-9.4,0-18.1-4.7-23.3-12.4-5.2-7.8-6.2-17.6-2.6-26.3l34.7-136.9c5.4-13,17.9-21.4,32-21.4h648.5c15.4,0,29.8,8.2,37.5,21.5l47.6,130.7c5.5,9.3,5.5,20.5.2,29.9-5.4,9.4-15.1,15-25.9,15h-748.7Z"/>
      <path class="st56" d="M1621.8,1984.8h-748.8c-9.6,0-16.2-9.8-12.4-18.6l34.7-136.9c3.1-7.6,10.4-12.4,18.6-12.4h648.5c10.3,0,19.8,5.5,25,14.3l9.5,26.1-12.5,2.6,12.7,45.8,18.2,1.9,19.8,54.3c6,10.2-1.3,23-13.1,23Z"/>
      <g>
        <path class="st115" d="M1271,1344.4v19.1s-15,13-37.8,10.9c-22.8-2.1-34.2-12.4-34.2-12.4v-30.4l72,12.8Z"/>
        <path class="st16" d="M1174.5,1277.7s-4.9-13.3-11.4-10.2c-6.5,3.1,11.7,30.9,14.2,34.9s5.9,55.3,54.4,59c48.5,3.7,54.1-52.5,56.5-56.8,2.5-4.3,16.1-34.6,9.3-38.9-6.8-4.3-10.2,9-11.7,8.7-1.5-.3.3-36.8-19.2-42.9-19.5-6.2-47.6-.9-51.3,0s-41.7,24.7-41.7,24.7l.9,21.6Z"/>
        <path class="st15" d="M1173.7,1275.9s1.2,10.6,1.5,19.1h5.9c-.3-1.8-.5-3.2-.5-4,0-5.3-1.5-29-1.5-29,0,0,7.4,7.4,46.3,5.9,38.9-1.5,50.1-25.6,50.1-25.6,0,0,2.8,6.5,4.9,14.2.9,3.2,2.5,6,4.1,8.2,0,.2,0,.4,0,.6.3,1.9-.8,15.7-2.8,29.8h6.2c.5-9.7,1.4-20.4,1.8-26l7.7-3.3s2.2-14.2.3-31.8c-1.9-17.6-17-33.1-30.3-38-13.3-4.9-49.4-14.4-80.3,2.6-30.9,17-20.2,69.1-20.2,69.1l6.8,8.4Z"/>
      </g>
      <g>
        <path class="st123" d="M1200.4,1914.5c1-2,1.5-4.2,1.5-6.3,0-2.2-.5-4.3-1.5-6.3h-23.1c-1.7-2.9-4.7-5.7-8.9-8.2l16.4-6.1c-6.4-3.5-14.5-6.6-23.7-9.1l-16.4,6.2c-6.5-1.6-13.6-2.7-21.2-3.4v-8.8c-5.4-.4-11-.6-16.7-.6-5.8,0-11.4.2-16.8.5v8.8c-7.6.6-14.8,1.8-21.3,3.3l-16.4-6.2c-9.3,2.4-17.4,5.5-23.8,8.9l16.4,6.2c-4.1,2.5-7.1,5.2-8.9,8.1h-23.1c-1,2-1.5,4.1-1.5,6.3,0,2.2.5,4.3,1.5,6.3h23.1c1.7,2.9,4.7,5.7,8.9,8.1l-16.4,6.2c6.4,3.5,14.4,6.6,23.6,9.1l16.4-6.2c6.5,1.6,13.7,2.7,21.4,3.4v8.8c5.4.4,11,.6,16.7.6,5.8,0,11.4-.2,16.8-.5v-8.8c7.6-.6,14.9-1.8,21.4-3.3l16.4,6.2c9.3-2.4,17.3-5.5,23.6-8.9l-16.4-6.2c4.1-2.5,7.1-5.1,8.9-8h23.1ZM1106.6,1923.8c-23.1,0-41.8-7.2-41.7-15.9,0-8.7,18.7-15.8,41.8-15.7s41.8,7.2,41.7,15.9c0,8.7-18.7,15.8-41.8,15.7Z"/>
        <path class="st123" d="M1490.3,1896.1c1.6-3.3,2.4-6.7,2.4-10.2,0-3.5-.8-6.9-2.4-10.2h-37c-2.8-4.7-7.6-9.1-14.2-13.1l26.2-9.8c-10.2-5.6-23.2-10.6-38-14.5l-26.2,9.9c-10.4-2.5-21.8-4.4-34-5.5v-14c-8.6-.6-17.6-.9-26.8-1-9.2,0-18.2.3-26.8.8v14c-12.2,1-23.6,2.8-34.1,5.3l-26.2-10c-14.8,3.8-27.8,8.7-38,14.3l26.2,9.9c-6.6,3.9-11.4,8.3-14.2,12.9h-37c-1.6,3.2-2.4,6.6-2.4,10.1,0,3.5.8,6.9,2.4,10.2h37c2.8,4.7,7.6,9,14.2,13l-26.2,9.9c10.2,5.6,23,10.5,37.8,14.5l26.2-9.9c10.4,2.5,22,4.4,34.2,5.5v14c8.6.6,17.6.9,26.8,1,9.2,0,18.2-.3,26.8-.8v-14c12.2-1,23.8-2.8,34.3-5.3l26.2,10c14.8-3.9,27.6-8.7,37.8-14.3l-26.2-10c6.6-3.9,11.4-8.2,14.2-12.9h37ZM1340.2,1910.9c-36.9,0-66.8-11.5-66.8-25.5,0-14,30-25.3,66.9-25.2,36.9,0,66.8,11.5,66.8,25.5,0,14-30,25.3-66.9,25.2Z"/>
      </g>
      <path class="st17" d="M1063.3,1548.1s-11.8,70.2-11.8,79,98.2,168.7,105.7,178.9c7.5,10.2.5,48.7,14.9,52.8,14.4,4.2,34.6,7.5,34.6-8.1s-14.2-39.3-2.7-32.5c11.5,6.8,25.7,18.3,21.7,5.4-4.1-12.9-32.5-32.5-34.6-37.3-2-4.7-80.6-159.9-80.6-166.7s14.8-63.7,14.8-63.7c0,0-44.9-3.4-62-7.8Z"/>
      <path class="st23" d="M1364.2,1574s11.3,24.4,12,37.1c.7,12.7-7.9,179.6-12,190.8-4.2,11.3.9,21.1,5.1,28.2,4.1,7,14.7,16.9,14.7,0s3.2-6.7,14.6,9.3c11.4,16,27.6,18.1,39.6,11.8,12-6.3-28.9-44.4-24.6-66.2,4.2-21.8,19-184.5,19-198.6s-11.3-30.6-11.3-30.6c0,0-28.1,10-57.1,18.2Z"/>
      <g>
        <g>
          <path class="st22" d="M744.2,1864.8v84.3c0,3.7-1,7.3-2.8,10.2l47-67.7c2-3.1,3.2-6.8,3.2-10.7v-81.9c0-5.8-6.4-8.8-10-4.4l-45.7,54.4c4.9,2.9,8.3,8.9,8.3,15.8Z"/>
          <path class="st19" d="M399.5,1849.4l.3,7.9c2.8-5.4,2.3-10.6,8.2-10.6h320.1c2.9,0,5.5.8,7.8,2.4l49.7-56.5h-313.6l-72.5,56.8Z"/>
          <path class="st24" d="M391.8,1864.8v84.3c0,2.1.3,4.2,1,6.2,2.2,7,8.1,12,15.1,12h320.1c5.2,0,9.9-2.8,12.8-7.1l.6-.8c1.7-2.9,2.8-6.5,2.8-10.2v-84.3c0-6.8-3.3-12.8-8.3-15.8-2.3-1.6-4.9-2.4-7.8-2.4h-320.1c-5.9,0-11,3.6-13.8,8.9-.6,1-1,1.9-1.3,3.1-.7,1.9-1,4.1-1,6.2Z"/>
          <path class="st119" d="M391.8,1864.8v84.3c0,2.1.3,4.2,1,6.2h325.2c5.6,0,10.2-5.1,10.2-11.4v-73.9c0-6.3-4.5-11.4-10.2-11.4h-325.2c-.7,1.9-1,4.1-1,6.2Z"/>
        </g>
        <g>
          <path class="st21" d="M707.8,1779v56.4c0,2.5-.8,4.9-2.2,6.8l37.9-45.3c1.6-2.1,2.6-4.6,2.6-7.2v-54.7c0-3.9-5.2-5.9-8.1-2.9l-36.9,36.4c4,2,6.7,6,6.7,10.5Z"/>
          <path class="st20" d="M429.8,1768.6l.2,5.3c2.2-3.6,1.8-7.1,6.6-7.1h258.2c2.3,0,4.4.5,6.3,1.6l40-37.8h-253l-58.5,38Z"/>
          <path class="st18" d="M423.6,1779v56.4c0,1.4.2,2.8.8,4.1,1.8,4.7,6.6,8,12.2,8h258.2c4.2,0,8-1.8,10.3-4.8l.5-.5c1.4-2,2.2-4.3,2.2-6.8v-56.4c0-4.6-2.7-8.6-6.7-10.5-1.9-1.1-4-1.6-6.3-1.6h-258.2c-4.8,0-8.9,2.4-11.1,6-.5.7-.8,1.3-1.1,2.1-.6,1.3-.8,2.7-.8,4.1Z"/>
          <path class="st119" d="M423.6,1779v56.4c0,1.4.2,2.8.8,4.1h262.3c4.5,0,8.2-3.4,8.2-7.6v-49.4c0-4.2-3.7-7.6-8.2-7.6h-262.3c-.6,1.3-.8,2.7-.8,4.1Z"/>
        </g>
        <g>
          <path class="st26" d="M690.5,1721.4v38.5c0,1.7-.7,3.3-1.8,4.7l30.2-30.9c1.3-1.4,2.1-3.1,2.1-4.9v-37.4c0-2.7-4.1-4-6.4-2l-29.4,24.8c3.2,1.3,5.3,4.1,5.3,7.2Z"/>
          <path class="st25" d="M469,1714.4l.2,3.6c1.8-2.4,1.4-4.9,5.3-4.9h205.8c1.9,0,3.5.4,5,1.1l31.9-25.8h-201.6l-46.6,26Z"/>
          <path class="st52" d="M464.1,1721.4v38.5c0,1,.2,1.9.7,2.8,1.4,3.2,5.2,5.5,9.7,5.5h205.8c3.4,0,6.3-1.3,8.2-3.3l.4-.4c1.1-1.3,1.8-3,1.8-4.7v-38.5c0-3.1-2.1-5.9-5.3-7.2-1.5-.7-3.2-1.1-5-1.1h-205.8c-3.8,0-7.1,1.6-8.9,4.1-.4.4-.7.9-.8,1.4-.5.9-.7,1.9-.7,2.8Z"/>
          <path class="st119" d="M464.1,1721.4v38.5c0,1,.2,1.9.7,2.8h209c3.6,0,6.5-2.3,6.5-5.2v-33.7c0-2.9-2.9-5.2-6.5-5.2h-209c-.5.9-.7,1.9-.7,2.8Z"/>
        </g>
      </g>
      <g>
        <path class="st50" d="M1735.7,2250.8h-970.6c-12.3,0-20.8-12.5-16-23.9l52.9-176c3.9-9.7,13.4-16,23.9-16h833.5c13.2,0,25.4,7,32.1,18.4l12.2,33.5-16.1,3.4,16.3,58.8,23.4,2.4,25.4,69.8c7.8,13.1-1.7,29.6-16.8,29.6Z"/>
        <polygon class="st123" points="1361.6 2055.6 1361.6 2230.6 1695.6 2230.6 1640.6 2055.6 1361.6 2055.6"/>
        <polygon class="st123" points="1111.4 2055.6 1063 2230.6 789.5 2230.6 840 2055.6 1111.4 2055.6"/>
        <polygon class="st51" points="1111.4 2137.8 1332.6 2137.8 1332.6 2055.6 1132.1 2055.6 1111.4 2137.8"/>
        <polygon class="st123" points="1120.7 2130.5 1137.7 2062.9 1325.3 2062.9 1325.3 2130.5 1120.7 2130.5"/>
        <polygon class="st49" points="1090.7 2230.6 1332.6 2230.6 1332.6 2148.5 1111.4 2148.5 1090.7 2230.6"/>
        <g>
          <path class="st82" d="M1394.6,2220.6h0c-3.2,0-5.9-2.6-6.1-5.9l-4.2-132.9c-.1-3.2,2.5-5.9,5.7-5.9h0c3.2,0,5.9,2.6,6.1,5.9l4.2,132.9c.1,3.2-2.5,5.9-5.7,5.9Z"/>
          <path class="st82" d="M1421.6,2220.6h0c-3.2,0-5.9-2.6-6.1-5.9l-4.2-132.9c-.1-3.2,2.5-5.9,5.7-5.9h0c3.2,0,5.9,2.6,6.1,5.9l4.2,132.9c.1,3.2-2.5,5.9-5.7,5.9Z"/>
          <path class="st82" d="M1448.6,2220.6h0c-3.2,0-5.9-2.6-6.1-5.9l-4.2-132.9c-.1-3.2,2.5-5.9,5.7-5.9h0c3.2,0,5.9,2.6,6.1,5.9l4.2,132.9c.1,3.2-2.5,5.9-5.7,5.9Z"/>
          <path class="st82" d="M1475.5,2220.6h0c-3.2,0-5.9-2.6-6.1-5.9l-4.2-132.9c-.1-3.2,2.5-5.9,5.7-5.9h0c3.2,0,5.9,2.6,6.1,5.9l4.2,132.9c.1,3.2-2.5,5.9-5.7,5.9Z"/>
          <path class="st82" d="M1506,2220.6h0c-3.2,0-6-2.6-6.2-5.9l-7.5-132.9c-.2-3.2,2.3-5.9,5.5-5.9h0c3.2,0,6,2.6,6.2,5.9l7.5,132.9c.2,3.2-2.3,5.9-5.5,5.9Z"/>
          <path class="st82" d="M1540.5,2220.6h0c-3.2,0-6.2-2.6-6.5-5.9l-14.4-132.9c-.3-3.2,2-5.9,5.2-5.9h0c3.2,0,6.2,2.6,6.5,5.9l14.4,132.9c.3,3.2-2,5.9-5.2,5.9Z"/>
          <path class="st82" d="M1569.8,2220.6h0c-3.2,0-6.2-2.6-6.6-5.9l-16.5-132.9c-.4-3.2,1.9-5.9,5.1-5.9h0c3.2,0,6.2,2.6,6.6,5.9l16.5,132.9c.4,3.2-1.9,5.9-5.1,5.9Z"/>
          <path class="st82" d="M1605.6,2220.6h0c-3.2,0-6.4-2.6-7-5.9l-24.6-132.9c-.6-3.2,1.5-5.9,4.8-5.9h0c3.2,0,6.4,2.6,7,5.9l24.6,132.9c.6,3.2-1.5,5.9-4.8,5.9Z"/>
          <path class="st82" d="M1640.4,2220.6h0c-3.2,0-6.5-2.6-7.3-5.9l-31.9-132.9c-.8-3.2,1.2-5.9,4.5-5.9h0c3.2,0,6.5,2.6,7.3,5.9l31.9,132.9c.8,3.2-1.2,5.9-4.5,5.9Z"/>
        </g>
        <g>
          <path class="st82" d="M818.8,2216.1h0c-3.2,0-5.1-2.5-4.1-5.6l40.9-125.5c1-3.1,4.4-5.6,7.7-5.6h0c3.2,0,5.1,2.5,4.1,5.6l-40.9,125.5c-1,3.1-4.4,5.6-7.7,5.6Z"/>
          <path class="st82" d="M845.7,2216.1h0c-3.2,0-5.1-2.5-4.1-5.6l40.9-125.5c1-3.1,4.4-5.6,7.7-5.6h0c3.2,0,5.1,2.5,4.1,5.6l-40.9,125.5c-1,3.1-4.4,5.6-7.7,5.6Z"/>
          <path class="st82" d="M872.7,2216.1h0c-3.2,0-5.1-2.5-4.1-5.6l40.9-125.5c1-3.1,4.4-5.6,7.7-5.6h0c3.2,0,5.1,2.5,4.1,5.6l-40.9,125.5c-1,3.1-4.4,5.6-7.7,5.6Z"/>
          <path class="st82" d="M899.7,2216.1h0c-3.2,0-5.1-2.5-4.1-5.6l40.9-125.5c1-3.1,4.4-5.6,7.7-5.6h0c3.2,0,5.1,2.5,4.1,5.6l-40.9,125.5c-1,3.1-4.4,5.6-7.7,5.6Z"/>
          <path class="st82" d="M927.2,2215.2h0c-3.2-.1-5-2.7-4-5.7l43.1-123.8c1-3,4.5-5.4,7.8-5.2h0c3.2.1,5,2.7,4,5.7l-43.1,123.8c-1,3-4.5,5.4-7.8,5.2Z"/>
          <path class="st82" d="M961.5,2215.3h0c-3.2-.1-5.1-2.7-4.2-5.8l36.4-124c.9-3,4.2-5.4,7.5-5.2h0c3.2.1,5.1,2.7,4.2,5.8l-36.4,124c-.9,3-4.2,5.4-7.5,5.2Z"/>
          <path class="st82" d="M990.1,2215.1h0c-3.2-.2-5.1-2.8-4.3-5.8l35.7-123.7c.9-3,4.2-5.3,7.4-5.1h0c3.2.2,5.1,2.8,4.3,5.8l-35.7,123.7c-.9,3-4.2,5.3-7.4,5.1Z"/>
          <path class="st82" d="M1023.5,2214.8h0c-3.2-.3-5.2-3-4.4-6l31.8-123.2c.8-3,4-5.2,7.3-4.9h0c3.2.3,5.2,3,4.4,6l-31.8,123.2c-.8,3-4,5.2-7.3,4.9Z"/>
          <path class="st82" d="M1054.5,2214.3h0c-3.2-.5-5.2-3.3-4.4-6.3l31.8-122.2c.8-3,4-5,7.2-4.5h0c3.2.5,5.2,3.3,4.4,6.3l-31.8,122.2c-.8,3-4,5-7.2,4.5Z"/>
        </g>
        <polygon class="st48" points="1208.5 2059.3 1293.9 2085.4 1216.8 2099.6 1241.7 2112.6 1208.5 2130.5 1120.7 2130.5 1137.7 2062.9 1208.5 2059.3"/>
        <ellipse class="st47" cx="1290.9" cy="2111.4" rx="14.3" ry="7.7"/>
        <polygon class="st123" points="1187.8 2175.6 1236.2 2175.6 1210.1 2206.8 1187.8 2175.6"/>
      </g>
      <g>
        <path class="st46" d="M1966.1,2283.4l-184.1-175.8c-6-5.7-6.6-23.6,1.4-25.5l231.7-44.7-49,245.9Z"/>
        <path class="st45" d="M2370.6,2175.9l-392.3,107.5-10.6-9.4,58-300.7c1.7-8.7,8.3-15.6,16.9-17.7l388.8-94.7c8.9-2.2,17.1,5.6,15.3,14.6l-53.3,276.4c-2.3,11.8-11.2,21.2-22.9,24Z"/>
        <path class="st33" d="M2381.2,2185.3l-402.9,98.1,58-300.7c1.7-8.7,8.3-15.6,16.9-17.7l388.8-94.7c8.9-2.2,17.1,5.6,15.3,14.6l-53.3,276.4c-2.3,11.8-11.2,21.2-22.9,24Z"/>
        <path class="st34" d="M1967.7,2274l-185.7-175.8c-6-5.7-3.2-15.7,4.8-17.6l228.3-52.6-47.4,245.9Z"/>
        <polygon class="st120" points="1996.6 2118.9 1892.6 2143.6 1976.9 2225.8 1996.6 2118.9"/>
      </g>
    </g>
  </g>
</svg>