<?xml version="1.0" encoding="UTF-8"?>
<svg id="Layer_1" xmlns="http://www.w3.org/2000/svg" version="1.1" viewBox="0 0 2730 2046">
  <!-- Generator: Adobe Illustrator 29.5.0, SVG Export Plug-In . SVG Version: 2.1.0 Build 137)  -->
  <defs>
    <style>
      .st0 {
        fill: #f49fb2;
      }

      .st1 {
        fill: #f0f3f9;
      }

      .st2 {
        fill: #239fd5;
      }

      .st3 {
        fill: #e9888b;
      }

      .st4 {
        fill: #2b3e91;
      }

      .st5 {
        fill: #cbdbf4;
      }

      .st6 {
        fill: #5a73d5;
      }

      .st7 {
        fill: #7c95e7;
      }

      .st8 {
        fill: #fefefe;
      }

      .st9 {
        fill: #fcc984;
      }

      .st10 {
        fill: #48c2da;
      }

      .st11 {
        fill: #9bc1f4;
      }

      .st12 {
        fill: #c0b36b;
      }

      .st13 {
        fill: #8d6cc1;
      }
    </style>
  </defs>
  <path class="st6" d="M673.5,666.5c2.6.5,3.9.9,6,2.5,4.9,11.9,2.4,35.1.9,47.9-1.9-.7-3.4-1.8-5-2.9-5.1-12.4-2.8-34.1-1.8-47.5Z"/>
  <path class="st6" d="M673.5,587.9c2.7.5,3.9,1,6.1,2.6,4.3,10.4,3.1,34.4.2,45.3-2.3-.3-3.6-.5-5.5-1.8-4.6-11-2.2-34.1-.7-46.1Z"/>
  <path class="st6" d="M614.8,645.2c10.8,0,37.9-3,46,3-.4,3.1-.8,3.1-3.1,5.4-11.6.1-37.3,3.1-46.5-2.7.5-3.6.9-3.4,3.7-5.6Z"/>
  <path class="st6" d="M731.4,644.7c4.3,0,6.7,0,10.3,2.5l1.2,2.6c-1.3,2.2-2.2,3.4-4.9,3.7-1.9.2-4,0-5.8,0-12.9-2.5-27.1,1.3-39.9-2.5l-.2-2.2,2.2-2.2c10.9-3.9,25.6-2.1,37.2-2Z"/>
  <path class="st0" d="M2437.6,866.5c7.4-.9,14.7.1,21.2,3.9.9.5,1.7,1.1,2.5,1.7.8.6,1.6,1.2,2.3,1.9.7.7,1.5,1.4,2.1,2.1.7.7,1.3,1.5,1.9,2.3.6.8,1.1,1.7,1.6,2.5.5.9,1,1.8,1.4,2.7.4.9.8,1.9,1.1,2.8.3,1,.6,1.9.8,2.9.2,1,.4,1.9.5,2.9.1,1,.2,2,.2,2.9,0,1,0,2,0,2.9,0,1-.2,1.9-.4,2.9-.2,1-.4,1.9-.7,2.9-.3.9-.6,1.9-1,2.8-.4.9-.8,1.8-1.3,2.7-.5.9-1,1.7-1.5,2.5-5,7.1-12,10.7-20.4,12.3-4.3.4-8.6,0-12.7-1.3-7-2.2-12.6-6.6-15.9-13.2-.5-1-.9-1.9-1.3-2.9-.4-1-.7-2-.9-3-.3-1-.5-2.1-.6-3.1-.2-1.1-.3-2.1-.3-3.2,0-1.1,0-2.1,0-3.2,0-1.1.2-2.1.3-3.2.2-1.1.4-2.1.7-3.1.3-1,.6-2,1-3,3.8-10.1,10.2-14,19.4-18.3Z"/>
  <path class="st0" d="M2335.9,252.4c6.9.5,72.6,31.8,77.8,37.1-5.9,5.8-17.8,10.5-25.5,13.7-8,7.5-35.9,21.7-46.5,25.7,3.8-7.2-3.7-65.4-5.9-76.6Z"/>
  <path class="st9" d="M281.2,486.9c11.6-.4,71.5,17.1,79.6,23.8-1.4,7.5-19.7,19.5-25.9,24.5-10.1,8.8-20.5,17.2-31.3,25.2-.2-.3-.3-.6-.5-.9l-.7-1.5c-6.2-12.5-24.3-58.3-21.2-71.1Z"/>
  <path class="st1" d="M731.4,644.7c3.2-7,1.7-19.8,1.4-27.5-3.8-105.6-92.3-177.4-55.6-289.7,18.6-57,66.5-103.9,119.1-130.6,106.7-54.1,218.6-30.3,325.1,10.2,17.4,6.8,34.7,13.9,51.8,21.3,6.8,3,13.3,7.1,20.4,9.4.3,0,.6.2.9.3l-111.5-.2c-26.5,0-56.9-3.1-82.7,2.9-2.1.5-4.2,1.1-6.3,1.7-2.1.6-4.1,1.3-6.2,2.1-2,.8-4,1.6-6,2.5-2,.9-3.9,1.9-5.8,2.9-1.9,1-3.8,2.2-5.6,3.3-1.8,1.2-3.6,2.4-5.3,3.7-1.7,1.3-3.4,2.7-5.1,4.1-1.6,1.4-3.2,2.9-4.8,4.4-1.4,1.4-2.8,2.8-4.1,4.3-1.3,1.5-2.6,3-3.8,4.6-1.2,1.6-2.4,3.2-3.4,4.8-1.1,1.6-2.1,3.3-3.1,5-1,1.7-1.9,3.5-2.8,5.2-.9,1.8-1.7,3.6-2.4,5.4-.7,1.8-1.4,3.7-2,5.6-.6,1.9-1.2,3.8-1.7,5.7-5.3,21.1-3.3,45.3-3.3,67,0,35.3,1,70.8.2,106.1-.1,4.5-.3,8.8,0,13.3.2,3.1-.1,4.8-1.2,7.7-2.9,1.9-4.2,1.7-7.5,2-1.2,29.1-.8,58.2-.7,87.3,0,12.6,1.2,26.5-.2,39l10.8.5v8.5c-.1,0-10.8,1.8-10.8,1.8v88.4c0,14.6,1.2,30.2-.3,44.7,3.7.7,7.3,1.5,11.1,1.7-.2,57.6,1.7,115.9-.4,173.4-1.5,19.1-.8,38.7-.8,57.8v95.2c0,0-285.6-.2-285.6-.2h-72.2c-14-.2-29-1.3-42.8.9-8.5,1.3-16.4,5.8-22.4,11.9-5.1,5.2-9.1,13.2-10,20.4-1.9,15.4-.9,32.1-.8,47.6l.3,90.8c.2,87.2-1.2,174.6-.2,261.8-2.4-16.4-12.7-35.5-21-49.9-24.2-42-58.4-75.9-98.7-102.7-18.3-12.2-37.5-23.2-55.2-36.3-51.5-38-93.2-92.5-112.5-153.7-.8-2.4-1.5-4.8-2.2-7.2-.7-2.4-1.4-4.8-2-7.3-.6-2.4-1.2-4.9-1.8-7.3-.6-2.4-1.1-4.9-1.6-7.3-.5-2.5-1-4.9-1.4-7.4-.5-2.5-.9-4.9-1.3-7.4-.4-2.5-.8-5-1.1-7.4-.3-2.5-.6-5-.9-7.5-.3-2.5-.5-5-.7-7.5-.2-2.5-.4-5-.5-7.5-.1-2.5-.3-5-.3-7.5,0-2.5-.1-5-.2-7.5,0-2.5,0-5,0-7.5,0-2.5.1-5,.2-7.5,0-2.5.2-5,.4-7.5.2-2.5.4-5,.6-7.5.2-2.5.5-5,.8-7.5.3-2.5.6-5,.9-7.5.3-2.5.7-5,1.1-7.4.4-2.5.8-4.9,1.3-7.4.5-2.5,1-4.9,1.5-7.4.5-2.5,1.1-4.9,1.7-7.3.6-2.4,1.2-4.9,1.8-7.3.6-2.4,1.3-4.8,2-7.2.7-2.4,1.4-4.8,2.2-7.2.8-2.4,1.6-4.8,2.4-7.1.8-2.4,1.7-4.7,2.5-7.1.9-2.3,1.8-4.7,2.7-7,.9-2.3,1.9-4.6,2.9-6.9,1-2.3,2-4.6,3.1-6.9,1-2.3,2.1-4.5,3.2-6.8,1.1-2.3,2.2-4.5,3.4-6.7,39.8-76.2,105.8-132.4,188.2-157.6,32.9-10.1,67.7-15.3,101.8-19.5,37.5-4.7,85.6-7,120.6-18.4,40.4-13.1,74.6-73.2,93-108.5,1.9.1,4,.3,5.8,0,2.7-.4,3.6-1.5,4.9-3.7l-1.2-2.6c-3.5-2.6-6-2.5-10.3-2.5Z"/>
  <path class="st7" d="M779.1,890.2c2.7.7,5.2,1.2,7.2,3.2,4.5,4.6,3,14.3,2.9,20.2,4.2,0,9.5-.7,13.6.4,4,1.1,5.7,3.6,7.4,7.1-.4,1.5-.5,2.8-1.7,3.9-5.8,5.5-11.6,4.5-19.1,4.5-.1,7.9.5,14.3-4.9,20.8-2.3-.7-5.1-1.5-6.9-3.1-4.3-4-3-13.4-3-18.7-4.3.1-10,.8-14.1-.5-3.8-1.2-5.8-3.4-7.5-6.8.5-2.4.4-3.2,2.2-4.9,5.3-5,12.5-3.5,19.2-3.2-.4-9.1-1.7-15.5,4.8-22.7Z"/>
  <path class="st3" d="M919.3,628.6c-7.1-3.3-13.8-8.5-17.6-15.5-7.1-13.1-6.3-76.1-1.7-90.9,3.2-10.3,11.3-15.3,20.3-19.8-1.2,29.1-.8,58.2-.7,87.3,0,12.6,1.2,26.5-.2,39Z"/>
  <path class="st3" d="M919.3,639.5v88.4c0,14.6,1.2,30.2-.3,44.7-6.3-2.7-13.5-6.8-17.1-12.9-7.2-12.4-6.3-86.2-1.7-100.9,3-9.8,10.5-14.8,19.1-19.3Z"/>
  <path class="st6" d="M763.8,349.1c6.3-.5,11.7-.7,17.8,1.3.5.2,1.1.4,1.6.6.5.2,1.1.4,1.6.7.5.2,1,.5,1.6.7.5.3,1,.5,1.5.8.5.3,1,.6,1.5.9.5.3,1,.6,1.4,1,.5.3.9.7,1.4,1,.5.4.9.7,1.3,1.1.4.4.9.8,1.3,1.2.4.4.8.8,1.2,1.2.4.4.8.9,1.1,1.3.4.4.7.9,1.1,1.4.3.5.7.9,1,1.4.3.5.6,1,.9,1.5.3.5.6,1,.8,1.5.3.5.5,1,.8,1.6.2.5.4,1,.7,1.5.2.5.4,1,.6,1.6.2.5.3,1.1.5,1.6.1.5.3,1.1.4,1.6.1.5.2,1.1.3,1.6,0,.6.2,1.1.2,1.7,0,.6.1,1.1.1,1.7,0,.6,0,1.1,0,1.7,0,.6,0,1.1,0,1.7,0,.6,0,1.1-.1,1.7,0,.6-.1,1.1-.2,1.7,0,.6-.2,1.1-.3,1.7-.1.5-.2,1.1-.4,1.6-.1.5-.3,1.1-.5,1.6-.2.5-.4,1.1-.5,1.6-.2.5-.4,1-.6,1.6-4.8,10.8-12.6,15.3-22.9,19.6-6.4.5-12,.6-18.2-1.6-8.7-3.1-15.7-9.1-19.5-17.6-.5-1-.9-2.1-1.2-3.1s-.6-2.1-.9-3.2c-.2-1.1-.4-2.2-.5-3.3-.1-1.1-.2-2.2-.2-3.4,0-1.1,0-2.2.1-3.4,0-1.1.3-2.2.5-3.3.2-1.1.5-2.2.8-3.3.3-1.1.7-2.1,1.1-3.2,4.6-10.8,12.5-15.5,22.8-19.4Z"/>
  <path class="st5" d="M764.3,362.4c3.3-.1,7.1-.5,10.3,0,5.1.8,9.9,4.1,12.9,8.2,3,4,4.3,9,3.3,14-1.6,8.2-6.3,12.2-12.9,16.3-3.3.2-6.9.4-10.1-.1-5-.8-10.3-5-13.1-9-3.1-4.4-4.2-9.6-2.9-14.8,1.7-7.2,6.5-10.8,12.5-14.5Z"/>
  <path class="st0" d="M411.4,1167.2c7.7-1,14.6-1,22,1.8,9.7,3.6,17.7,10.6,21.9,20.2.5,1.1.9,2.2,1.2,3.3s.7,2.2.9,3.4c.3,1.1.4,2.3.6,3.4.1,1.2.2,2.3.2,3.5,0,1.2,0,2.3-.1,3.5,0,1.2-.2,2.3-.4,3.5-.2,1.1-.5,2.3-.8,3.4-.3,1.1-.7,2.2-1.1,3.3-4.7,12-13.6,18.1-24.9,23.2-7.4.9-14.4,1-21.5-1.5-1.2-.4-2.3-.9-3.4-1.4-1.1-.5-2.2-1.1-3.3-1.7-1.1-.6-2.1-1.3-3.1-2-1-.7-1.9-1.5-2.9-2.3-.9-.8-1.8-1.7-2.6-2.6-.8-.9-1.6-1.9-2.3-2.8-.7-1-1.4-2-2.1-3.1-.6-1.1-1.2-2.1-1.7-3.2-.3-.6-.5-1.1-.7-1.7s-.5-1.1-.7-1.7c-.2-.6-.4-1.2-.6-1.7-.2-.6-.3-1.2-.5-1.8-.1-.6-.3-1.2-.4-1.8-.1-.6-.2-1.2-.3-1.8,0-.6-.2-1.2-.2-1.8,0-.6,0-1.2-.1-1.8,0-.6,0-1.2,0-1.8,0-.6,0-1.2,0-1.8,0-.6,0-1.2.1-1.8,0-.6.1-1.2.2-1.8,0-.6.2-1.2.3-1.8.1-.6.3-1.2.4-1.8.2-.6.3-1.2.5-1.8s.4-1.2.6-1.7c4.6-12.1,13.4-18.1,24.6-23.2Z"/>
  <path class="st1" d="M418.4,1182.9c3,.3,5.9.6,8.8,1.6.7.3,1.4.5,2.1.9.7.3,1.3.7,2,1.1.6.4,1.2.8,1.8,1.3.6.5,1.2.9,1.7,1.5.5.5,1,1.1,1.5,1.6.5.6.9,1.2,1.3,1.8.4.6.8,1.2,1.2,1.9s.7,1.3,1,2c.3.7.5,1.3.7,2,.2.7.3,1.4.4,2.1.1.7.2,1.4.2,2.1,0,.7,0,1.4,0,2.1,0,.7-.1,1.4-.2,2.1-.1.7-.3,1.4-.5,2.1-.2.7-.4,1.3-.7,2-.3.7-.6,1.3-.9,1.9-3.5,6.7-9.1,9-15.9,11.2-2.7-.2-5.3-.7-7.9-1.5-.7-.2-1.3-.5-1.9-.7-.6-.3-1.3-.6-1.9-.9-.6-.3-1.2-.7-1.7-1.1-.6-.4-1.1-.8-1.6-1.3-.5-.5-1-.9-1.5-1.4-.5-.5-.9-1-1.3-1.6-.4-.5-.8-1.1-1.2-1.7-.4-.6-.7-1.2-1-1.8-.3-.6-.6-1.3-.8-1.9-.2-.7-.4-1.3-.6-2-.2-.7-.3-1.4-.4-2.1,0-.7-.1-1.4-.1-2.1,0-.7,0-1.4,0-2.1,0-.7.2-1.4.3-2.1.1-.7.3-1.4.5-2,.2-.7.5-1.3.7-2,3.3-7.4,8.6-10.1,15.7-12.8Z"/>
  <path class="st8" d="M536.4,806.5c3,0,6,0,9.1.2,19.4,1.4,33.7,14.7,45.9,28.6,9.5-5.1,22.4-8.1,33-5.6,17,4.1,21.9,20.2,29.6,33.5,5.9,3.7,12.6-.2,19.2-.9,6.2-.6,12.4.6,17.3,4.6,11.3,9.1,13.5,24.7,15.3,38-30,.2-60,0-90-.5-61.2,1.2-122.5.5-183.7.4-.7-3.9-1-7.7-1-11.7,0-12,3.8-23.9,12.6-32.4,10.8-10.6,23.6-12,38.1-11.8,3.1-7.7,6.5-15.1,11.7-21.7,11.2-14.2,25.7-19.1,43.1-21Z"/>
  <path class="st1" d="M1798,309.8c12.9-2.6,27.2-1,40.4-1.4,20.1-.6,40.4-2.4,60.4-4.7,110.1-13.1,176.9-46.2,279.7,22.1,2,1.3,4,2.7,6,4,2,1.4,3.9,2.8,5.8,4.2,1.9,1.4,3.9,2.9,5.8,4.3,1.9,1.5,3.8,2.9,5.6,4.5,1.9,1.5,3.7,3,5.5,4.6,1.8,1.6,3.6,3.1,5.4,4.7,1.8,1.6,3.6,3.2,5.3,4.9,1.7,1.6,3.5,3.3,5.2,5,1.7,1.7,3.4,3.4,5.1,5.1,1.7,1.7,3.3,3.5,4.9,5.2,1.6,1.8,3.2,3.5,4.8,5.3,1.6,1.8,3.1,3.6,4.7,5.5,1.5,1.8,3,3.7,4.5,5.6,1.5,1.9,3,3.8,4.4,5.7,1.4,1.9,2.9,3.8,4.3,5.8,1.4,1.9,2.8,3.9,4.1,5.9,1.3,2,2.7,4,4,6,1.3,2,2.6,4,3.8,6.1,1.3,2,2.5,4.1,3.7,6.2,1.2,2.1,2.4,4.2,3.5,6.3,1.1,2.1,2.3,4.2,3.4,6.4,1.1,2.1,2.2,4.3,3.2,6.4,1,2.2,2.1,4.3,3,6.5,1,2.2,1.9,4.4,2.9,6.6.9,2.2,1.8,4.4,2.7,6.6.9,2.2,1.7,4.5,2.6,6.7.8,2.2,1.6,4.5,2.4,6.8.8,2.3,1.5,4.5,2.2,6.8.7,2.3,1.4,4.6,2.1,6.9.7,2.3,1.3,4.6,1.9,6.9.6,2.3,1.2,4.6,1.7,7,.5,2.3,1.1,4.7,1.5,7,9.2,45.7,6.6,94.2-5.5,139.1-26.3,97.1-94,173.8-59.3,280.2,10.5,32.2,29.2,58.8,57.6,77.6,29.9,19.8,64.9,29.1,97,44.4,69.3,33,119.8,106.2,135.5,180.4.6,2.7,1.1,5.4,1.6,8.1.5,2.7,1,5.4,1.4,8.1.4,2.7.8,5.4,1.2,8.1.4,2.7.7,5.4,1,8.2.3,2.7.6,5.5.8,8.2.2,2.7.4,5.5.6,8.2.2,2.7.3,5.5.4,8.2,0,2.7.2,5.5.2,8.2,0,2.7,0,5.5,0,8.2,0,2.7-.1,5.5-.2,8.2-.1,2.7-.2,5.5-.4,8.2-.2,2.7-.4,5.5-.6,8.2-.2,2.7-.5,5.5-.8,8.2-.3,2.7-.6,5.5-1,8.2-.4,2.7-.8,5.4-1.2,8.1-.5,2.7-.9,5.4-1.4,8.1-.5,2.7-1.1,5.4-1.6,8.1-.6,2.7-1.2,5.4-1.8,8-.6,2.7-1.3,5.3-2,8-.7,2.7-1.4,5.3-2.2,7.9-.8,2.6-1.6,5.3-2.4,7.9-.8,2.6-1.7,5.2-2.6,7.8-.9,2.6-1.8,5.2-2.8,7.7-1,2.6-2,5.1-3,7.7-1,2.5-2.1,5.1-3.2,7.6-1.1,2.5-2.2,5-3.4,7.5-1.2,2.5-2.3,5-3.6,7.4-1.2,2.5-2.5,4.9-3.8,7.3-1.3,2.4-2.6,4.8-3.9,7.2-1.3,2.4-2.7,4.8-4.1,7.1-1.4,2.4-2.8,4.7-4.3,7-1.5,2.3-3,4.6-4.5,6.9-1.3,2-2.7,4.1-4.1,6.1-1.4,2-2.8,4-4.3,6-1.5,2-2.9,3.9-4.4,5.9-1.5,1.9-3,3.9-4.5,5.8-1.5,1.9-3.1,3.8-4.7,5.6-1.6,1.9-3.2,3.7-4.8,5.5-1.6,1.8-3.3,3.6-5,5.4-1.7,1.8-3.4,3.5-5.1,5.3-1.7,1.7-3.5,3.5-5.2,5.2-1.8,1.7-3.6,3.4-5.4,5-1.8,1.7-3.6,3.3-5.5,4.9-1.9,1.6-3.7,3.2-5.6,4.8-1.9,1.6-3.8,3.1-5.7,4.6-1.9,1.5-3.9,3-5.8,4.5-1.9,1.5-3.9,2.9-5.9,4.3-2,1.4-4,2.8-6,4.2-2,1.4-4.1,2.7-6.1,4-2.1,1.3-4.1,2.6-6.2,3.9-2.1,1.3-4.2,2.5-6.3,3.7-2.1,1.2-4.3,2.4-6.4,3.6-2.2,1.2-4.3,2.3-6.5,3.4-2.2,1.1-4.4,2.2-6.6,3.3-2.2,1.1-4.4,2.1-6.7,3.1-2.2,1-4.5,2-6.7,2.9-2.3.9-4.5,1.9-6.8,2.8-2.3.9-4.6,1.8-6.9,2.6-2.3.8-4.6,1.6-6.9,2.4-2.3.8-4.7,1.5-7,2.3-2.3.7-4.7,1.4-7,2.1-2.3.7-4.7,1.3-7.1,1.9-2.4.6-4.7,1.2-7.1,1.7-2.4.6-4.8,1.1-7.2,1.6-14,2.9-28.1,4.9-42.4,6-7.7.6-16.2.2-23.8,1.6.1-.3.3-.6.4-1,2.1-6.6,2.5-183.4,1-202.2-.2-2.3-.9-3.8-2-5.8l-358.9-.3h-.9c-17.7-3.2-46.6-.8-65.4-.8l-.2-7.9c1.3-33.4.1-67.3.1-100.8v-199.4c0,0,0-414.2,0-414.2v-150.6c0,0,.2-145.9.2-145.9,0-26.1,3.1-56.8-2.2-82.3Z"/>
  <path class="st6" d="M2356.8,1360.7c2.8-.4,4.8-.2,7.5.2,1.6,1.6,2.7,2.3,3.5,4.5,1.8,4.8,0,12.8-2.3,17.2,4.6-.3,11.2-1.5,15.6-.4,3.6.8,5.7,2.6,7.7,5.6l-.7,2.9c-6.9,6.1-13.5,4.5-22.1,4,1.6,2.6,2.7,6.3,2.9,9.3.3,4.8-.6,6.5-3.4,9.9-2,1.6-3.2,1.5-5.7,1.9-6.5-5.2-3.4-13-5.8-20.2-.1-.3-.2-.6-.3-.9-2,0-4,0-5.9.1-1.9,0-4.1.2-6-.2-3.1-.8-4.9-2.8-6.3-5.5.4-2.7.4-3.3,2.5-5.3,4-3.7,10.6-2.6,15.6-2.4,2.6-6.1,1.7-14,3.3-20.7Z"/>
  <path class="st6" d="M2043.7,956.7c7.8-.1,15.5,1.8,21.9,6.3,7.6,5.3,12.5,13.6,13.9,22.7.2,1.1.3,2.3.4,3.4,0,1.1,0,2.3,0,3.4,0,1.1-.1,2.3-.3,3.4-.1,1.1-.4,2.3-.6,3.4-.3,1.1-.6,2.2-.9,3.3-.4,1.1-.8,2.2-1.3,3.2-.5,1-1,2.1-1.6,3.1-.6,1-1.2,2-1.9,2.9-6.5,8.9-15,12.5-25.5,14.1-7.6.3-15-1.7-21.4-6-7.7-5.2-12.7-13.2-14.4-22.3-1.7-9.1.1-18.8,5.5-26.3,6.7-9.5,15.2-12.7,26.1-14.6Z"/>
  <path class="st1" d="M2041.8,968.5c5.1-.4,9.8,0,14.5,2.3.7.4,1.3.7,2,1.1.6.4,1.3.9,1.9,1.3.6.5,1.2,1,1.7,1.5.5.5,1.1,1.1,1.6,1.7.5.6,1,1.2,1.4,1.8.4.6.8,1.3,1.2,2,.4.7.7,1.4,1,2.1.3.7.6,1.4.8,2.2,1.8,5.8,1.3,12.2-1.7,17.5-3.8,6.8-9.4,9.7-16.6,11.7-2.8.5-6.1.4-8.8-.2-5.8-1.1-11.5-4.9-14.4-10.1-3.4-6.1-3.4-13.5-1.1-19.9,3-8.5,9-11.7,16.7-15.1Z"/>
  <path class="st3" d="M1800,538c9.2.3,18.7.9,25.3,8.3,4,4.5,5,11.5,5.7,17.3,2.4,19.4,1.8,79.2-.3,99.4-.8,7.7-2.1,15.3-8.6,20.2-6.3,4.8-14.3,5.4-22,5.4v-150.6Z"/>
  <path class="st11" d="M2117.5,680c7.2-1,14.3-1.6,21.4.3,12.1,3.1,25.4,11.1,31.6,22.3,3.8,6.9,5,15.9,2.6,23.5,6.5-.5,13.1-1.1,19.7-1.2,6.2-.2,14.7.3,19.1,5.1,2.2,2.4,2.6,4.8,2.5,7.9-2.5,1.8-4.1,1.8-7.2,1.9-20.2,1-40.9,0-61.2.1l-147,.5c-15,.1-49.9,3.1-62.5-1.5-3-1.1-3.9-1.9-5.1-4.8,1.4-3.8,3.8-6,7.3-8.1,11.3-6.7,33.3.9,45.2,3.7,7.3-8.3,12.9-12.5,23.2-16.6,9.3,3.6,18,9.2,26.7,14.1.6-4.3.7-9.2,2.2-13.4,2.9-8.4,9.1-15.5,17.3-19.1,7.3-3.2,16.1-3.7,23.6-.6,5.6,2.3,10.4,7.7,12.5,13.3,8.2-13.4,14.1-20.3,28.4-27.4Z"/>
  <path class="st8" d="M1963.5,378.5c5.3-.4,10.7,0,15.7,1.6,14.8,4.5,23.6,15.6,30.8,28.7,19.5-.2,41.5-3.8,58.5,7.6,8.5,5.7,20,18.7,21.2,29.3.4,3.4-.5,4.9-2.4,7.7-12.7,6.9-70.3,2.9-87.1,2.8-20.4-.7-116.5,2.7-127.9-1.8-1.7-2.4-2.4-3.3-2.5-6.4-.4-8.6,5.7-22.5,12.1-28.4,11.8-10.9,30.9-10.4,45.8-10.5l1.1-1.9c8.8-15.5,17.3-23.8,34.6-28.6Z"/>
  <path class="st11" d="M1800.1,1102.9h65.6c0,0,234.2,0,234.2,0,20,0,40,0,60-.2,12.2,0,25.2-1,37.3.6,7.8,1,14.3,3.8,19.9,9.4,6,6.1,8.6,13.5,9.8,21.8,1.8,12.5.9,25.7.9,38.3l-.3,62.2c-.3,52.9,1.3,105.9.2,158.8,0,4,0,6.7-2.1,10.2l-221.4-1.2c-40,0-80.9,1.8-120.8,0-5.2.4-13-.6-17.3,2.1-.7,3-.5,3.7.4,6.7h-.9c-17.7-3.2-46.6-.8-65.4-.8l-.2-7.9c1.3-33.4.1-67.3.1-100.8v-199.4Z"/>
  <path class="st5" d="M2057.9,1230.1c15.1-1.6,91.3-3.4,101.6,1.5,4,1.9,6.5,6.1,7.7,10.2,1.3,4.7,1.5,10.3-1.3,14.6-2.4,3.7-6.2,4.9-10.3,5.8-.7.2-1.3.4-2,.5-13.1,2.5-29.7,0-43.1,0-13.8,0-28.3,1.7-42,0-4.9-.6-10.2-1.7-14.3-4.7-2.9-2.1-4.7-4.9-4.9-8.5-.5-7.8,3.6-14,8.6-19.4Z"/>
  <path class="st5" d="M1956.7,1165.7c35.9-1.4,72.3-.2,108.2-.2,27.3,0,55.9-1.8,83.1.2,4.6.4,9.9,1,13.8,3.7,3.6,2.5,6,6.7,6.7,11.1.7,4.2-.2,9.2-2.7,12.6-2.8,3.8-6.6,4.9-11,5.8-3.4.8-7,.8-10.5.9-38,1.1-76.6-.7-114.7-.7-22.1,0-46.9,2.6-68.7-.2-.9-.1-1.9-.3-2.8-.6-.9-.3-1.8-.6-2.6-1.1-.8-.4-1.6-.9-2.4-1.5-.7-.6-1.4-1.2-2.1-1.9-3.1-3.3-4-7.8-3.6-12.1.7-7.7,3.7-11.1,9.3-15.9Z"/>
  <path class="st7" d="M1800.1,1102.9h65.6c0,0-.2,299.9-.2,299.9,6-.3,11.8-.4,17.9,0-5.2.4-13-.6-17.3,2.1-.7,3-.5,3.7.4,6.7h-.9c-17.7-3.2-46.6-.8-65.4-.8l-.2-7.9c1.3-33.4.1-67.3.1-100.8v-199.4Z"/>
  <path class="st5" d="M1865.5,1402.8c6-.3,11.8-.4,17.9,0-5.2.4-13-.6-17.3,2.1-.7,3-.5,3.7.4,6.7h-.9c-17.7-3.2-46.6-.8-65.4-.8l-.2-7.9c21.8.2,43.8.9,65.6-.2Z"/>
  <path class="st4" d="M928.9,479.4c.8-35.3-.1-70.8-.2-106.1,0-21.7-2-45.9,3.3-67,.5-1.9,1-3.8,1.7-5.7.6-1.9,1.3-3.7,2-5.6.7-1.8,1.5-3.6,2.4-5.4.9-1.8,1.8-3.5,2.8-5.2,1-1.7,2-3.4,3.1-5,1.1-1.6,2.2-3.3,3.4-4.8,1.2-1.6,2.5-3.1,3.8-4.6,1.3-1.5,2.7-2.9,4.1-4.3,1.5-1.5,3.1-3,4.8-4.4,1.6-1.4,3.3-2.8,5.1-4.1,1.7-1.3,3.5-2.5,5.3-3.7,1.8-1.2,3.7-2.3,5.6-3.3,1.9-1,3.8-2,5.8-2.9,2-.9,4-1.8,6-2.5,2-.8,4.1-1.5,6.2-2.1,2.1-.6,4.2-1.2,6.3-1.7,25.8-6,56.2-3,82.7-2.9l111.5.2h365.7s100.1-.1,100.1-.1c22.3,0,45.8-1.7,67.8,2.4,16.7,3.1,33.7,13.5,45.5,25.5,12.1,12.3,19.7,27.4,24.4,43.9,5.4,25.5,2.3,56.2,2.2,82.3l-.3,145.9v150.6c0,0,.1,414.2.1,414.2v199.4c-.1,33.4,1.1,67.4-.2,100.8l.2,7.9c18.9,0,47.7-2.3,65.4.8h.9s358.9.2,358.9.2c1.1,2,1.8,3.5,2,5.8,1.5,18.9,1.1,195.7-1,202.2-.1.3-.3.6-.4,1,2.4,7.7,2,198.2,0,206.5,13.6.7,80.5-2.8,87.8,1.4,3,1.7,3.5,3,4.5,6.2l-1.3,2.4c-2.2,1.2-3.7,1.7-6.2,1.9-16.2,1-32.9.2-49.1.3h-92.6s-287.6,0-287.6,0H795.8c0,.1-279.5,0-279.5,0h-68.8c-9.2,0-20.3,1.8-29.1.2-4-.7-8.9-2.6-11-6.3-1.2-2-.8-1.7-.2-3.6,8.7-5.1,74.4-2.2,89.1-2.2-1.4-55.8-.3-111.9-.2-167.8,0-32.9-1.6-66.1-.4-98.9,0-9-.2-18.1-.5-27.1-1.1-87.2.3-174.6.2-261.8l-.3-90.8c0-15.5-1.1-32.2.8-47.6.9-7.2,4.9-15.2,10-20.4,6-6.1,13.9-10.6,22.4-11.9,13.8-2.2,28.8-1,42.8-1h72.2c0,.1,285.7.3,285.7.3v-95.2c0-19.2-.7-38.7.8-57.8,2.1-57.5.2-115.8.4-173.4-3.7-.2-7.4-1-11.1-1.7,1.5-14.5.4-30.1.3-44.7v-88.4c0,0,10.7-1.8,10.7-1.8v-8.5c.1,0-10.7-.5-10.7-.5,1.4-12.5.2-26.4.2-39,0-29.1-.4-58.2.7-87.3,3.4-.2,4.7,0,7.5-2,1.1-2.9,1.5-4.6,1.2-7.7-.3-4.5-.2-8.8,0-13.3Z"/>
  <path class="st8" d="M1453.6,283.4c5.6,1.1,10.3,2.3,13.7,7.3,2,3,2.5,6.1,1.7,9.5-1.3,5.9-5.4,8.6-10.2,11.6-1.5,0-3-.1-4.5-.4-4.2-.9-7.7-3-9.9-6.7-1.8-3.1-2.1-6.8-1.2-10.3,1.6-5.7,5.4-8.2,10.3-11Z"/>
  <path class="st0" d="M928.9,479.4c2.1,49.8,1.3,99.8,1.2,149.7l-10.8-.5c1.4-12.5.2-26.4.2-39,0-29.1-.4-58.2.7-87.3,3.4-.2,4.7,0,7.5-2,1.1-2.9,1.5-4.6,1.2-7.7-.3-4.5-.2-8.8,0-13.3Z"/>
  <path class="st0" d="M919.3,639.5l10.7-1.8c.2,45.5,1.1,91.2,0,136.7-3.7-.2-7.4-1-11.1-1.7,1.5-14.5.4-30.1.3-44.7v-88.4Z"/>
  <path class="st8" d="M1299.3,285.5c25.4,0,50.8-.1,76.2-.5,12.3-.1,27.4-1.8,39.4.8,3.8.8,6.7,2,8.7,5.4.2.3.4.7.6,1.1.2.4.3.7.4,1.1.1.4.2.8.3,1.2,0,.4.2.8.2,1.2,0,.4,0,.8,0,1.2,0,.4,0,.8,0,1.2,0,.4-.1.8-.2,1.2,0,.4-.2.8-.3,1.2-1.4,4.3-4.8,6.2-8.5,8.2-15.8,0-108.6,1.9-115.9-.2-3.8-1.1-8-3.6-9.8-7.3-1.2-2.5-1.4-5.4-.4-7.9,1.8-4.4,5.1-6.2,9.3-7.9Z"/>
  <path class="st7" d="M1800.1,1410.9c18.9,0,47.7-2.3,65.4.8l.8,120.2c.1,20.4,1.9,42.5-.2,62.8-1,26.9.2,54,.3,80.9.1,50.7-.1,101.4-.7,152.1l-128.3-.2c12.4-5.7,23.8-13.1,33.5-22.7,1.6-1.5,3.1-3.1,4.5-4.8,1.5-1.7,2.9-3.3,4.2-5.1,1.3-1.7,2.6-3.5,3.8-5.4,1.2-1.8,2.4-3.7,3.5-5.6,1.1-1.9,2.1-3.9,3.1-5.8,1-2,1.9-4,2.7-6,.8-2,1.6-4.1,2.3-6.2.7-2.1,1.3-4.2,1.8-6.3,5.9-22.9,3.4-49.4,3.4-72.9v-91.8c-.1,0,0-184,0-184Z"/>
  <path class="st5" d="M786.7,1593.1l141.9.3-.2,95.9c0,15.5-2.2,34.7,1.2,49.7,4,29,15.9,55.6,40,73.6,7,5.2,15.3,9.6,23,13.7l-.3,1.6c-89.9-2.4-180.6-.2-270.6-.2l.2-39.1c19-1.9,37.2-7,54.2-15.6,23.7-12,47.6-32.5,55.8-58.7,4.6-14.6,3.9-31.3-3.4-45-9.9-18.6-27.4-28.3-46.8-34.2,4.8-14,6.1-27.3,5-42Z"/>
  <path class="st2" d="M645.3,1594.1c2.9-13.9,8.4-27.2,17.6-38.2,14.1-17,32.1-22.3,53.3-24.3,22.4,2.6,41.6,10,55.8,28.3,7.9,10.1,11.9,20.9,14.7,33.3,1.1,14.7-.2,28-5,42,19.4,5.9,36.9,15.7,46.8,34.2,7.3,13.7,7.9,30.4,3.4,45-8.1,26.1-32.1,46.7-55.8,58.7-17.1,8.6-35.3,13.7-54.2,15.6l-7.3-.3c-1.1,13-.6,26.3-.6,39.3h-217.8c-1.4-55.8-.3-111.9-.2-167.7,0-32.9-1.6-66.1-.4-98.9.6,10.7.7,21.4.8,32.2,20.8,0,137-2.8,148.8.9Z"/>
  <path class="st4" d="M716.4,1712.8c7.7-10.5,24.6-32.9,35.7-38.7h3.5c0,0,1.5,1.9,1.5,1.9-1.4,6.4-34.5,43.1-41,47.6-.7.5-1.3.8-2.1,1.2-8-6.4-31.4-30.7-33.9-39.9-.8-2.9-.4-3.4.9-5.9,8.8-1.7,24.4,29.9,34,33.3.4.2.9.3,1.4.4Z"/>
  <path class="st10" d="M645.3,1594.1c2.9-13.9,8.4-27.2,17.6-38.2,14.1-17,32.1-22.3,53.3-24.3l.3,115.7c.1,21.5,1.6,44.1,0,65.5-.5-.1-.9-.3-1.4-.4-9.6-3.4-25.2-34.9-34-33.3-1.3,2.5-1.7,3-.9,5.9,2.4,9.2,25.9,33.5,33.9,39.9l1.9,1.6c1,14.5,2.5,48.7-1.3,61.9-24.4-3.7-48-10.6-69-24-19.5-12.4-38.9-31.2-43.9-54.6-3.5-16.4-.3-35.7,9.1-49.7,9.5-14.1,23.2-20.6,39.4-23.8-3.5-14.3-6.1-27.3-5-42.2Z"/>
  <path class="st5" d="M495.7,1561c.6,10.7.7,21.4.8,32.2,20.8,0,137-2.8,148.8.9-1.1,14.8,1.5,27.9,5,42.2-16.2,3.2-29.9,9.7-39.4,23.8-9.4,14-12.6,33.3-9.1,49.7,5,23.4,24.4,42.2,43.9,54.6,21,13.4,44.6,20.3,69,24-1.1,13-.6,26.3-.6,39.3h-217.8c-1.4-55.8-.3-111.9-.2-167.7,0-32.9-1.6-66.1-.4-98.9Z"/>
  <path class="st11" d="M1866.4,1411.7l358.9.3c1.1,2,1.8,3.5,2,5.8,1.5,18.9,1.1,195.7-1,202.2-.1.3-.3.6-.4,1,2.4,7.7,2,198.2,0,206.5-19.3,2.8-41.7.7-61.3.7l-133.4.3c.1-9.2,3.2-35.3-1.9-42l-1.6-.4-4,1.2c-4.7,11.1-.8,29.1-1.7,41.4-9.2,0-19.5-1.2-28.5,0-14.8-2-31.2-.9-46.2-.9h-81.7c.6-50.7.8-101.4.7-152,0-26.9-1.2-54.1-.3-80.9,2.1-20.3.3-42.4.2-62.8l-.8-120.2h.9Z"/>
  <path class="st2" d="M2021.8,1786.9c-3.9-.2-7.7-.4-11.5-.6-33.3-2.3-65.3-19.3-87-44.4-1.5-1.8-3-3.6-4.4-5.5-1.4-1.9-2.8-3.8-4.2-5.7-1.3-1.9-2.6-3.9-3.9-5.9-1.2-2-2.4-4-3.6-6.1-1.1-2.1-2.2-4.1-3.3-6.2-1-2.1-2-4.2-3-6.4-.9-2.2-1.8-4.3-2.7-6.5-.8-2.2-1.6-4.4-2.3-6.6-.7-2.2-1.4-4.5-2-6.8-.6-2.3-1.2-4.6-1.7-6.8-.5-2.3-.9-4.6-1.3-6.9-.4-2.3-.7-4.6-1-7-.3-2.3-.5-4.7-.6-7-.2-2.3-.3-4.7-.3-7,0-2.3,0-4.7,0-7,0-2.3.2-4.7.4-7,3-38,21.9-76.3,51.1-100.9,1.8-1.5,3.6-3,5.4-4.4,1.8-1.4,3.7-2.8,5.6-4.1,1.9-1.3,3.8-2.6,5.8-3.8,2-1.2,4-2.4,6-3.5,2-1.1,4.1-2.2,6.2-3.2,2.1-1,4.2-2,6.3-2.9,2.1-.9,4.3-1.8,6.5-2.6,2.2-.8,4.4-1.6,6.6-2.3,2.2-.7,4.4-1.3,6.7-1.9,2.2-.6,4.5-1.1,6.8-1.6,2.3-.5,4.5-.9,6.8-1.2,2.3-.4,4.6-.7,6.9-.9,2.3-.2,4.6-.4,6.9-.6,2.3-.1,4.6-.2,6.9-.2,2.3,0,4.6,0,7,.1,2.3.1,4.6.3,6.9.5,2.2.2,4.4.5,6.7.9,2.2.3,4.4.7,6.6,1.2,2.2.4,4.4.9,6.6,1.5,2.2.6,4.3,1.2,6.5,1.8,2.1.7,4.3,1.4,6.4,2.1,2.1.8,4.2,1.6,6.3,2.4,2.1.9,4.1,1.8,6.1,2.7,2,1,4,2,6,3,2,1.1,3.9,2.2,5.9,3.3,1.9,1.2,3.8,2.4,5.7,3.6,1.9,1.2,3.7,2.5,5.5,3.9,1.8,1.3,3.6,2.7,5.3,4.1,1.7,1.4,3.4,2.9,5.1,4.4,1.7,1.5,3.3,3,4.9,4.6,1.6,1.6,3.1,3.2,4.6,4.9,1.5,1.7,3,3.3,4.4,5.1,23.6,29,34.7,68.4,30.9,105.5-.3,2.4-.6,4.8-1,7.2-.4,2.4-.8,4.8-1.3,7.1-.5,2.4-1,4.7-1.7,7.1-.6,2.3-1.3,4.7-2,7-.7,2.3-1.5,4.6-2.3,6.9s-1.7,4.5-2.7,6.7c-.9,2.2-1.9,4.4-3,6.6-1.1,2.2-2.2,4.3-3.3,6.4-1.2,2.1-2.4,4.2-3.6,6.3-1.3,2.1-2.6,4.1-3.9,6.1-1.4,2-2.8,4-4.2,5.9-1.5,1.9-3,3.8-4.5,5.7-1.5,1.9-3.1,3.7-4.8,5.5-1.6,1.8-3.3,3.5-5,5.2-1.7,1.7-3.5,3.4-5.3,5-1.8,1.6-3.6,3.2-5.5,4.7-17,13.6-54.4,32.1-76.6,28.9-.7,0-1.3-.2-2-.3l-5.2-.3-1.6-.4-4,1.2c-4.7,11.1-.8,29.1-1.7,41.4-.5-13.9-.2-27.8-.2-41.7Z"/>
  <path class="st8" d="M2027.9,1633.6c0-8.7-1.8-61,0-65.2.4-.9,1.3-1.4,2-2.1l3.3.4c3.7,6.3,1.2,81.8,1.2,95.2,16.5-18.1,32.9-38.3,51.7-53.9h2.6c0-.1,2.1,2.4,2.1,2.4-.1,1.1,0,2.2-.3,3.2-1,3-49.7,52.1-56.2,59l.3,114.1-5.2-.3-1.6-.4.2-44.9c-16.8-18.4-33.8-36.5-51-54.4-6.9-7.3-16.4-15.4-22-23.5-1.6-2.4-1.4-3.8-1.5-6.6l2.1-1.7c8.7,2.7,60.6,62.3,72.5,73.5v-82.4c-7.1-8.3-23.6-23.4-24.8-33.8l1.5-1.9h3.1c7.2,6.9,14.1,15.4,20.1,23.4Z"/>
  <path class="st11" d="M928.9,1100.7v-95.2c0-19.2-.7-38.7.8-57.8,1.3,45.3.3,91,.3,136.3l-.4,267.4.3,255.5c0,43.8,1.5,88.2-.3,132-3.4-15-1.2-34.2-1.2-49.7l.2-95.9-141.9-.3c-2.8-12.4-6.8-23.1-14.7-33.3-14.2-18.3-33.4-25.7-55.8-28.3-21.2,2-39.3,7.3-53.3,24.3-9.1,11-14.7,24.3-17.6,38.2-11.8-3.6-128-.9-148.8-.9-.1-10.7-.2-21.5-.8-32.2,0-9-.2-18.1-.5-27.1-1.1-87.2.3-174.6.2-261.8l-.3-90.8c0-15.5-1.1-32.2.8-47.6.9-7.2,4.9-15.2,10-20.4,6-6.1,13.9-10.6,22.4-11.9,13.8-2.2,28.8-1,42.8-1h72.2c0,.1,285.7.3,285.7.3Z"/>
  <path class="st5" d="M805.5,1418.9c15.5-1,32.3-1.6,47.8-.7,8.3.5,17.3,2.2,22.8,8.9,3,3.6,4.5,8.6,3.7,13.2-1.2,6.7-6.3,11.1-11.4,14.9-14.7,2.8-33.5,2.4-48.4,1.4-7.4-.5-16.1-2.2-21-8.3-3.5-4.3-4.2-9.9-3.4-15.3,1-6.8,4.6-10.1,9.9-14.1Z"/>
  <path class="st5" d="M840.1,1276.2c16.4-.5,35.3-2.2,51.5,0,6.4.8,13.2,3,17,8.6,3.1,4.5,3.2,10.1,2.3,15.3-1.4,7.3-5.8,11.2-11.7,15-14.5,1.9-32.7,2.2-47.2.7-7.2-.7-15.3-2.9-19.8-9-3.7-5-4.2-11.8-2.9-17.7,1.4-6.4,5.6-9.6,10.9-12.9Z"/>
  <path class="st5" d="M551,1418.8c44.1-1.7,88.5-.6,132.7-.6,24.2,0,51-2.4,74.8.9,5.2.7,9.6,2.4,12.7,6.9,3.2,4.6,3.8,11.8,2.4,17.1-1.8,6.9-7.7,10.8-13.6,13.9h-135.8c-20.7.1-53.8,3.3-73.1-1.4-4.2-1-8.1-2.5-10.3-6.4-2.9-5.1-4.7-11.8-2.8-17.5,2.2-6.8,7.2-9.8,13.1-12.8Z"/>
  <path class="st5" d="M550,1276.2c17.3-1.6,35.2-.6,52.6-.5l92.8.4c21.1,0,82.2-2.8,99.6.8,4.8,1,9.2,4,11.6,8.3,2.6,4.7,2.5,10.6,1,15.7-1.8,6.6-6.1,9.7-11.7,13-13.9,2-29.2.9-43.3,1l-80.4.2-73.4-.2c-14.3,0-29.3.9-43.5-.9-5.7-.7-11.1-2.7-14.6-7.6-3.1-4.3-3.4-9.5-2.4-14.6,1.6-7.9,5.2-11.5,11.8-15.7Z"/>
  <path class="st5" d="M550.5,1347c22.4-1,45.3-.2,67.7-.2l128.8.2c23.4,0,151.1-2.8,165.7,1.8,4.2,1.3,7.6,4.8,9.6,8.6,2.6,5,3.9,12.4,1.6,17.7-2.3,5.5-8.5,8.9-13.6,11.2-26.8.9-53.9.2-80.7.2h-155.4c0,0-79.5.3-79.5.3-13.8,0-28.9,1.3-42.6-.6-.6,0-1.2-.2-1.8-.3-.6-.1-1.2-.3-1.7-.5-.6-.2-1.1-.4-1.7-.7-.5-.3-1.1-.5-1.6-.9-.5-.3-1-.7-1.5-1-.5-.4-.9-.8-1.4-1.2s-.9-.8-1.3-1.3c-.4-.5-.8-.9-1.1-1.4-3.5-4.9-3.6-11.4-2.2-17.1,1.9-7.2,6.5-11.2,12.6-14.9Z"/>
  <path class="st8" d="M1599.4,271c27.1.1,95-3.1,117.5,2.2,1.6.4,3.1.8,4.7,1.3,1.6.5,3.1,1,4.6,1.6,1.5.6,3,1.2,4.5,1.9,1.5.7,2.9,1.4,4.4,2.2,1.4.8,2.8,1.6,4.2,2.4,1.4.9,2.7,1.8,4,2.7,1.3.9,2.6,1.9,3.8,3,1.2,1,2.5,2.1,3.6,3.2,15,14.3,20.8,32.4,21.2,52.7.6,32.5-1,65.3-1,97.8.5,72.9.6,145.8.2,218.8l-.2,541.3v328.7s0,105.2,0,105.2c0,19.4,1.1,39.6-.6,58.8-1.6,17.9-8.6,35.4-21.3,48.3-1.4,1.4-2.8,2.7-4.2,3.9-1.5,1.3-3,2.5-4.5,3.6-1.6,1.1-3.2,2.2-4.8,3.2-1.6,1-3.3,2-5,2.8-1.7.9-3.5,1.7-5.2,2.4-1.8.7-3.6,1.4-5.4,2-1.8.6-3.7,1.1-5.6,1.6-1.9.4-3.8.8-5.7,1.1-22.4,3.4-47.4,1.2-70.1,1.1h-125.4c0,0-461.8.4-461.8.4h-1.7c-25,.5-46.1-1.2-64.9-19.8-15.6-15.4-21.2-35.4-21.5-56.7-1.1-76.3,0-152.8-.4-229.2v-708.6c0,0-.6-288.8-.6-288.8v-84.7c-.1-15.8-.9-32.1.3-47.8,1-11.9,8-25.7,16.3-34.1,1-1,2.1-2.1,3.2-3,1.1-1,2.3-1.9,3.4-2.8,1.2-.9,2.4-1.7,3.6-2.6,1.2-.8,2.5-1.6,3.8-2.3,1.3-.7,2.6-1.4,3.9-2,1.3-.6,2.7-1.2,4.1-1.8,1.4-.5,2.8-1,4.2-1.5,1.4-.4,2.8-.8,4.3-1.2,24.2-5.9,106.4-2.4,136.2-2.3,3.3,16.8,5.9,33.3,15.1,48.1,8.3,13.4,22.4,25.5,38.1,29,25.4,5.7,55.3,2.7,81.3,2.7h138.9c0,0,73.1,0,73.1,0,13.8,0,28.5.9,42.2-.7,8.7-1,18.4-6.1,25.7-10.8,27-17.2,33.5-44.1,39.7-73.5Z"/>
  <path class="st4" d="M1639.8,329.8c1,.6,2,1.8,2.8,2.7.9,4,2,9.2.2,13.1-1,2.2-1.7,2.3-3.8,3-2.5-.7-5.4-1.8-7.9-.9-.5.2-.9.3-1.4.5-1.5,0-3.2.2-4.7,0-3-.3-4.6-.7-6.5-3,2.4-7.3,14.7-12,21.3-15.4Z"/>
  <path class="st4" d="M1716.7,324.3c3.5,0,6.9-.3,9.8,2,2.7,2.1,4.6,5.7,4.8,9.2.2,3.8-1.9,8.1-4.8,10.6-3.8,3.3-9,2.3-13.7,2.4h-18.3c-.4-8-.6-15.6.4-23.4l21.8-.7Z"/>
  <path class="st12" d="M1021.4,342.6c15.1-.2,47.4-3.2,60.4,1.1,3.4,1.2,4.3,2.5,5.8,5.6,0,3.9-1,5.7-3,9-17.4.9-38.4,2.7-55.5.3-5-.7-7.4-1.7-10.5-5.7-.6-4.2.9-6.6,2.8-10.3Z"/>
  <path class="st12" d="M1021.2,314.4c15.7.2,47.8-3,61.4,1.5,3.5,1.2,4.3,2.3,5.9,5.5-.7,4.3-1.5,5.3-4.3,8.8-16.4.2-44.1,3.1-59.1-.5-4.2-1-5.5-2-7.7-5.7.3-4.6,1.3-5.8,3.8-9.7Z"/>
  <path class="st11" d="M1330.5,494.6c24-1.2,48.5-.3,72.5-.3l138.9-.2c23.4,0,110.9-2.7,125,1,5.5,1.4,11,5.1,13.7,10.2,2.8,5.2,2.8,11.3.9,16.8-2.6,7.7-7.5,10.7-14.4,14.1-84.6-.8-169.1-1.1-253.7-.8-15.8,0-31.5-.2-47.3,0-10.7.2-23,2.1-33.5,0-5.9-1.2-11.7-4.7-14.9-9.9-3.1-5-3.4-11-1.6-16.6,2.4-7.6,7.5-11,14.3-14.3Z"/>
  <path class="st13" d="M1130.5,413.4c19.9-2.7,43.6,4.1,60.3,14.8,20.5,13.2,36.2,34.7,41.2,58.7.3,1.5.6,3.1.8,4.6.2,1.5.4,3.1.6,4.6.2,1.5.3,3.1.4,4.6,0,1.6.1,3.1.1,4.7,0,1.6,0,3.1,0,4.7,0,1.6-.2,3.1-.3,4.7-.1,1.5-.3,3.1-.5,4.6-.2,1.5-.5,3.1-.8,4.6-.3,1.5-.6,3-1,4.6-.4,1.5-.8,3-1.2,4.5-.4,1.5-.9,3-1.4,4.4-.5,1.5-1.1,2.9-1.7,4.4-.6,1.4-1.2,2.9-1.9,4.3-.7,1.4-1.4,2.8-2.1,4.2-.7,1.4-1.5,2.7-2.3,4.1-.8,1.3-1.6,2.7-2.5,4-15.7,23.4-37.2,34.5-64.2,39.8-24.2,1.7-46.2-2.7-66.1-17.2-1.3-1-2.6-1.9-3.8-3-1.2-1-2.5-2.1-3.7-3.1-1.2-1.1-2.4-2.2-3.5-3.3-1.1-1.1-2.3-2.3-3.3-3.5-1.1-1.2-2.1-2.4-3.2-3.6-1-1.2-2-2.5-3-3.8-1-1.3-1.9-2.6-2.8-3.9-.9-1.3-1.8-2.7-2.6-4.1-.8-1.4-1.6-2.8-2.4-4.2-.8-1.4-1.5-2.9-2.2-4.3-.7-1.5-1.3-2.9-1.9-4.4-.6-1.5-1.2-3-1.7-4.5-.5-1.5-1-3-1.5-4.6-.5-1.5-.9-3.1-1.3-4.7-.4-1.6-.7-3.1-1-4.7-.3-1.6-.6-3.2-.8-4.8-3.3-23.4,3.7-49.2,18-68,15.9-21.1,37.5-31.6,63.2-35.1Z"/>
  <path class="st8" d="M1161.2,474.8c1.8.4,3.3.7,4.8,1.8,5.2,3.8,30.8,43.3,31.2,49.8.1,2.4-.3,2.2-1.8,3.8-.3,0-.7,0-1-.1-9.1-2.4-25.7-34.2-31.2-43-15.2,17.6-29,37.4-45.8,53.4-1.1-.4-1.5-.4-2.5-.9-7.6-3.7-31.6-41.2-35-49.8,1-3.3.7-3.3,3.6-5.1,7.4,1.9,27,35.7,33.9,44.1,14.7-17.8,27.6-37.5,43.7-54Z"/>
  <path class="st4" d="M1057.5,1077.8c24.3-1.6,241.2-2.2,252.5,1,5.3,1.5,10.9,6.5,13.1,11.5,2,4.4,2.1,10.6,2.3,15.3,1.3,31-.3,62.5-.3,93.6,0,35,1.6,70.4.4,105.3-.2,4.8-.3,11-2.3,15.4-2.3,5.2-7.9,7.7-12.8,9.9l-171.4-.2c-24.2,0-51,2.7-74.9,0-5.9-.7-15.8-2.6-19.4-7.7-3-4.3-3.5-15.6-3.8-20.8-1.4-24.4-1.8-198.7.8-207,2.6-8.3,8.6-12.6,15.8-16.6Z"/>
  <path class="st3" d="M1059.2,1088.4c36.7-1.9,74.4,0,111.2,0,41,0,82.7-1.6,123.6.3,6.1.3,12.2.7,18,2.7,5.5,25.5,2.4,71.1,2.4,98.3,0,40.2,1.4,80.8.1,120.9-.2,4.7-1.8,6-5.1,9.1-43.1,1.7-86.9.2-130,.3-26.8,0-102.6,3.5-125-2.7-1.8-3.4-2.1-6.9-2.3-10.7-1.4-35.1.3-70.9.1-106.1-.1-32.1-2.3-65.9.2-97.9.5-6.8,1.4-9.4,6.8-14Z"/>
  <path class="st4" d="M1186.1,1121.2c12.1,4.4,105.2,70.8,118.3,82.5,3.5,3.1,5,5,5.3,9.8l-2.4,1c-12.6-2.7-81.7-55.4-98.4-67.1-5.8-4-13.6-11.2-20.1-13.6-2.4-.9-3-.1-5.1,1-16.1,10.9-112.7,81.1-122.4,83l-2.3-1.6-.2-3.2c.9-2.7,1.8-4.3,4-6.1,11.1-9.7,25-18,37.2-26.5,28.7-19.9,57.5-39.7,86.4-59.3Z"/>
  <path class="st8" d="M1186.8,1147.1c17.8,12.3,36.8,26,55.7,36.3-1.5,34.1-.1,68.6.2,102.7l-50.8-.4h-59.3s.2-100.8.2-100.8c17.3-13.5,36.5-24.4,53.9-37.8Z"/>
  <path class="st5" d="M1180,1202.4h19.2c1.1,20.3,1.2,31.3-10.2,49.1-2.9,3.9-6.2,7.6-9.4,11.3.6-20.1.7-40.2.4-60.4Z"/>
  <path class="st4" d="M1418.8,1077.7c50.2-2.5,101.5,0,151.8,0,22.6,0,84.7-3.3,102.5,1.5,7,1.9,11.7,5.1,15.1,11.6,1.8,3.4,2.2,7,2.4,10.8,1.3,22.8,1.9,204-1.7,214.5-2.6,7.5-8.1,10.7-14.9,13.8-17.3,1.2-35.2.3-52.5.3l-103.2-.2c-23.3,0-81,3.3-100.6-.7-6.1-1.2-9.5-3.5-12.9-8.8-2.3-3.6-2.1-8.9-2.3-13-1.6-41.1-.1-82.6-.2-123.8,0-19.4-2.9-77,1.2-91.4,2.2-7.5,8.9-11.1,15.2-14.6Z"/>
  <path class="st7" d="M1419.6,1088.5c47.5-1.1,95.4,0,142.9,0,31.2,0,63.9-1.9,95,.4,6.6.5,13.8,1.3,19.6,4.7,4.5,10,3.9,189.4,3,209.1-.3,7.9-.6,11.4-6.6,16.9-12.7,1.1-25.8.4-38.5.4h-71c-46.7,0-94.3,2.1-140.9-.1-2.3-.1-3.9-.6-6-1.6-2.8-3.3-3-5.1-3.4-9.3-2.3-24.5-.3-51-.2-75.6.1-40.7-.7-81.4-.4-122,0-9,0-16.2,6.6-22.8Z"/>
  <path class="st8" d="M1544.2,1143.4c14,0,27,3.3,38.4,11.6,13.2,9.5,21.7,23.9,24.2,39.9.2,1,.3,2,.4,2.9.1,1,.2,2,.2,3,0,1,0,2,.1,3,0,1,0,2,0,3,0,1-.1,2-.2,3,0,1-.2,2-.3,3-.1,1-.3,2-.5,2.9-.2,1-.4,1.9-.6,2.9-.2,1-.5,1.9-.8,2.9-.3.9-.6,1.9-.9,2.8-.3.9-.7,1.9-1.1,2.8-.4.9-.8,1.8-1.2,2.7-.4.9-.9,1.8-1.3,2.7-.5.9-.9,1.7-1.4,2.6-.5.9-1,1.7-1.6,2.5-.5.8-1.1,1.6-1.7,2.4-11.3,15.5-26.7,22.4-45.1,25.5-14.9.4-29-3.5-41-12.6-.8-.6-1.6-1.3-2.4-1.9-.8-.7-1.6-1.3-2.3-2-.8-.7-1.5-1.4-2.2-2.2-.7-.7-1.4-1.5-2.1-2.3-.7-.8-1.3-1.6-2-2.4-.6-.8-1.3-1.6-1.9-2.5-.6-.8-1.2-1.7-1.7-2.6-.6-.9-1.1-1.7-1.6-2.6-.5-.9-1-1.8-1.5-2.7-.5-.9-.9-1.8-1.3-2.8-.4-.9-.8-1.9-1.2-2.8-.4-1-.7-1.9-1.1-2.9-.3-1-.6-2-.9-3-.3-1-.5-2-.8-3-.2-1-.4-2-.6-3-.2-1-.3-2-.5-3.1-.1-1-.2-2-.3-3,0-1-.1-2-.1-3,0-1,0-2,0-3,0-1,0-2,.2-3,0-1,.2-2,.3-3s.3-2,.5-2.9c.2-1,.4-1.9.6-2.9.2-1,.5-1.9.8-2.9.3-1,.6-1.9.9-2.8.3-.9.7-1.9,1-2.8.4-.9.8-1.8,1.2-2.7.4-.9.9-1.8,1.3-2.7s.9-1.7,1.4-2.6c.5-.9,1-1.7,1.6-2.5.5-.8,1.1-1.6,1.7-2.4.6-.8,1.2-1.6,1.8-2.4,11.7-14.4,27.5-21.1,45.6-22.9Z"/>
  <path class="st7" d="M1541.1,1153.9c12.2-.5,22.4.8,32.9,7.5.7.5,1.4.9,2.1,1.4.7.5,1.3,1,2,1.5.7.5,1.3,1.1,1.9,1.6.6.6,1.2,1.1,1.8,1.7.6.6,1.2,1.2,1.8,1.8.6.6,1.1,1.2,1.7,1.9.5.6,1.1,1.3,1.6,2,.5.7,1,1.3,1.5,2,.5.7.9,1.4,1.4,2.1.4.7.9,1.4,1.3,2.2.4.7.8,1.5,1.2,2.2.4.8.7,1.5,1,2.3.3.8.6,1.5.9,2.3.3.8.6,1.6.8,2.4.2.8.5,1.6.7,2.4.2.8.4,1.6.6,2.4.2.8.3,1.7.4,2.5.1.8.2,1.7.3,2.5,0,.8.1,1.7.2,2.5,0,.9,0,1.7,0,2.6,0,.9,0,1.7,0,2.6,0,.8-.1,1.7-.2,2.5,0,.8-.2,1.7-.3,2.5-.1.8-.3,1.7-.4,2.5-.2.8-.4,1.7-.6,2.5-.2.8-.4,1.6-.7,2.5-.3.8-.5,1.6-.8,2.4-.3.8-.6,1.6-.9,2.4-.3.8-.7,1.6-1,2.3-.4.8-.8,1.5-1.2,2.3-.4.7-.8,1.5-1.3,2.2-.4.7-.9,1.4-1.4,2.1-8.7,13-20.7,18.9-35.6,22-11.5.6-21.1-.6-31.2-6.6-.7-.4-1.5-.9-2.2-1.4-.7-.5-1.4-1-2.1-1.5-.7-.5-1.4-1-2-1.6-.7-.5-1.3-1.1-2-1.7-.6-.6-1.3-1.2-1.9-1.8-.6-.6-1.2-1.2-1.8-1.9-.6-.6-1.1-1.3-1.7-1.9-.5-.7-1.1-1.3-1.6-2-.5-.7-1-1.4-1.5-2.1-.5-.7-.9-1.4-1.4-2.2-.4-.7-.9-1.5-1.3-2.2-.4-.8-.8-1.5-1.2-2.3-.4-.8-.7-1.6-1.1-2.3-.3-.8-.6-1.6-.9-2.4-.3-.8-.6-1.6-.8-2.4-.3-.8-.5-1.6-.7-2.5-.2-.8-.4-1.6-.5-2.3s-.3-1.6-.4-2.4c-.1-.8-.2-1.6-.3-2.4,0-.8-.1-1.6-.2-2.4,0-.8,0-1.6,0-2.4,0-.8,0-1.6,0-2.4,0-.8.1-1.6.2-2.4,0-.8.2-1.6.3-2.4.1-.8.3-1.6.4-2.4.2-.8.3-1.6.5-2.3.2-.8.4-1.5.7-2.3.2-.8.5-1.5.8-2.3.3-.7.6-1.5.9-2.2.3-.7.6-1.5,1-2.2.4-.7.7-1.4,1.1-2.1.4-.7.8-1.4,1.2-2.1,8.8-14.2,22.2-21.4,38.1-25Z"/>
  <path class="st4" d="M1058.8,1400.4c52.7-2.4,106.4-.2,159.2-.2,23.6,0,70.2-3.1,90.9,1.2,6.2,1.3,11,3.5,14.4,9,2.1,3.4,2.7,6.9,2.9,10.8,2,35.7,0,72.8,0,108.6,0,18.8,2.7,104-1.3,116.8-2,6.4-7.9,9.4-13.5,12-30.6,0-247.3,2.6-260.7-2.9-4-1.7-7.3-5.7-8.7-9.8-3.2-8.7-2.3-197.1-1.2-219.2.2-4.7.5-10.1,2.6-14.4,3.2-6.6,8.5-9.8,15.3-12Z"/>
  <path class="st11" d="M1054.6,1411.9c27.6-2.9,67.8-.6,96.5-.5,47.5,0,95.7-1.7,143.1.3,4.8.2,15.4.3,19.2,3.2.4.3.7.6,1,.9h.3s.5.6.5.6c3.7,22,.6,75.3.6,100.7,0,39.5,2.7,80.4.2,119.8-.3,4.1-1.2,7.2-3.1,10.8l-167.8.2c-28,0-62.5,3.1-89.8-2.2v-2c-.1,0-1.5.4-1.5.4l.2,1.2-1.1-1c-4.6-16.3-1.2-95.5-1.1-117.5,0-34.2-1.8-69.5,0-103.6.2-4.1,1.1-7.5,2.9-11.2Z"/>
  <path class="st8" d="M1106,1471.9l110-.2c19.2,0,39.3-1.3,58.5.5,1.7,2.9,1,6.9.9,10.3l-109.8.2c-19,0-39.4,1.6-58.2-.6-2-3.1-1.4-6.5-1.5-10.1Z"/>
  <path class="st8" d="M1106.4,1559.4c34.9-.8,69.9-.2,104.8-.2,20.6,0,43.2-2,63.5.7,2,3.5,1.4,6.2,1.3,10.1l-108.9.3c-19.5,0-39.9,1.3-59.2-.5-2-3.6-1.5-6.4-1.5-10.4Z"/>
  <path class="st8" d="M1105.9,1515.9l110.8-.3c18.8,0,39.4-1.8,58,.7,1.8,3.3,1.3,6.7,1.2,10.4l-110.1.2c-19.2,0-39.6,1.3-58.7-.7-1.8-2.7-1.3-6.9-1.4-10.2Z"/>
  <path class="st4" d="M1422.6,1400.6l158.7-.5c28.6,0,59.2-2.4,87.6.3,5,.5,9.6,1.8,13.8,4.7,5.4,3.8,6.6,9.3,7.4,15.5,1.7,12.6.7,26.1.7,38.8v67.3c0,0,0,71.3,0,71.3,0,13.1.9,26.8-.2,39.9-.4,5.1-1.7,10.5-5,14.5-4.1,4.9-9.7,6-15.7,6.4h-161.2c-27.4,0-56.5,2.1-83.7-.5-6.3-.6-12.1-1.8-17.5-5.3-1.9-3.7-2.7-7.3-3.4-11.3-2.7-15-1.7-30.8-1.8-45.9v-67.6c0-34.5-2.3-77.2.5-110.8.3-3.7.9-6.7,3.2-9.8,4.2-5.5,10.5-6.2,16.8-7.1Z"/>
  <path class="st9" d="M1415.3,1411c46.2-1.9,93.1-.3,139.3-.2,34.6,0,70.5-1.9,104.9.5,6,.4,13.8,1,18.9,4.4,1.2.8,1,.6,1.2,1.9,1.9,11.5.7,24.2.6,35.9l-.2,65.7.3,75.7c0,13.8,1,28.4-.5,42.1-.4,4-1.7,6.6-4,10-16.6,3.3-65.6.9-84.7.9-51.6,0-105.2,2.2-156.6-.3-5.7-.3-14.7-.4-19.7-3.3-1.3-.7-1.6-1.7-2-3.1-2.3-10.2-.8-23.8-.8-34.3l.2-72c0-38.1-2.6-77.8.1-115.7.2-3.5.9-5.5,3-8.3Z"/>
  <path class="st8" d="M1537.7,1465.4c14.9-.6,27.7,1.1,40.4,9.5,13.5,9,22.4,23.2,25.4,39.1,3.1,16.3,0,33.3-9.8,46.9-10.6,14.9-25.4,22.1-43.1,25.2-12.7,1-25.3-.9-36.4-7.3-.8-.5-1.7-1-2.5-1.6-.8-.5-1.6-1.1-2.4-1.7-.8-.6-1.6-1.2-2.3-1.8-.8-.6-1.5-1.3-2.2-1.9-.7-.7-1.4-1.3-2.1-2-.7-.7-1.4-1.4-2-2.1-.7-.7-1.3-1.5-1.9-2.2s-1.2-1.5-1.8-2.3c-.6-.8-1.2-1.6-1.7-2.4-.6-.8-1.1-1.6-1.6-2.5-.5-.8-1-1.7-1.5-2.5-.5-.9-.9-1.7-1.3-2.6-.4-.9-.8-1.8-1.2-2.7-.4-.9-.7-1.8-1.1-2.7-.3-.9-.7-1.8-.9-2.8-.3-.9-.6-1.9-.8-2.8-.2-1-.5-2-.7-3-.2-1-.4-2-.5-3-.1-1-.3-2-.4-3,0-1-.2-2-.2-3.1,0-1,0-2,0-3.1,0-1,0-2,0-3.1,0-1,.1-2,.2-3,.1-1,.2-2,.4-3,.2-1,.3-2,.5-3,.2-1,.4-2,.7-3,.3-1,.5-2,.8-2.9.3-1,.6-1.9,1-2.9.4-1,.7-1.9,1.1-2.8.4-.9.8-1.9,1.3-2.8.4-.9.9-1.8,1.4-2.7.5-.9,1-1.8,1.5-2.6,10.2-16.6,25.1-25.1,43.6-29.6Z"/>
  <path class="st9" d="M1538.8,1476.2c10.5-.7,20.5.7,30,5.7,11.6,6.1,19.9,17,23.6,29.5,3.8,13.1,2.6,26.9-4.2,38.8-8.1,14.2-21.1,21.5-36.4,25.6-11.3.6-21.2-.7-31.2-6.4-.7-.4-1.4-.8-2.1-1.3-.7-.4-1.4-.9-2.1-1.4-.7-.5-1.3-1-2-1.5-.6-.5-1.3-1-1.9-1.6-.6-.5-1.2-1.1-1.8-1.7-.6-.6-1.2-1.1-1.7-1.7-.6-.6-1.1-1.2-1.7-1.8-.5-.6-1.1-1.3-1.6-1.9-.5-.7-1-1.3-1.5-2-.5-.7-.9-1.4-1.4-2.1-.4-.7-.9-1.4-1.3-2.1-.4-.7-.8-1.4-1.2-2.2-.4-.7-.7-1.5-1.1-2.2-.3-.8-.6-1.5-.9-2.3-.3-.8-.6-1.5-.8-2.3-.3-.8-.5-1.6-.7-2.4-.2-.8-.4-1.6-.6-2.4-.2-.8-.3-1.6-.4-2.5-.1-.8-.2-1.6-.3-2.5,0-.8-.2-1.7-.2-2.5,0-.8,0-1.7,0-2.5,0-.8,0-1.7,0-2.5,0-.8,0-1.7.2-2.5,0-.8.2-1.7.3-2.5.1-.8.3-1.6.4-2.5.2-.8.3-1.6.5-2.4.2-.8.4-1.6.7-2.4.2-.8.5-1.6.8-2.4.3-.8.6-1.6.9-2.3.3-.8.7-1.5,1-2.3.4-.8.7-1.5,1.1-2.2.4-.7.8-1.5,1.2-2.2,8.4-14,21-20.5,36.4-24.3Z"/>
  <path class="st4" d="M1066.6,671.9c38.7-1.3,77.7-.2,116.4-.2h227.7s169.8.1,169.8.1c26.7,0,54.2-1.8,80.9-.3,6.5.4,13.8,1.7,19.3,5.3,5,3.2,8.4,9.4,9.5,15.2,1.8,9.9.5,21.8.5,32l.2,63.1v130.1c0,22.3,1.2,45.4-.5,67.6-.4,5.6-1.2,10.1-4.5,14.8-5.6,8-13.9,10.7-22.9,12.3-50.4-1.7-101.2-.5-151.6-.4l-291.2.4h-97.8c-16.9-.2-34.2.6-51-.5-5.7-.4-11-1.4-16-4.3-6.8-4.1-10.6-10.9-12.4-18.5-4.5-19.3-.9-62-1-84.2l-.2-132.5c0-23.4-1.2-47.6.3-71,.4-6,1.1-11.4,4.6-16.5,4.7-7,11.8-10.5,19.7-12.3Z"/>
  <path class="st11" d="M1065.1,683.6c34.3-1.1,68.8-.2,103.1-.3h195.7c0-.1,212-.2,212-.2,27.1,0,54.4-1.1,81.4-.4,6.3.2,14.5.2,19.1,5.1,5.2,21.1,3.6,55.1,2.4,77.2-2.3,2.1-4.7,1.5-7.8,1.6h-616.4c0-21.5-3.2-48.9.8-69.7,1.4-7,3.8-9.4,9.6-13.4Z"/>
  <path class="st8" d="M1116.2,711.2c2.1,0,4.2,0,6.3.2,4.3.6,8.4,2.7,11,6.4.3.4.5.7.7,1.1.2.4.4.8.6,1.2.2.4.3.8.4,1.2.1.4.2.8.3,1.3,0,.4.1.9.2,1.3,0,.4,0,.9,0,1.3,0,.4,0,.9-.1,1.3,0,.4-.2.9-.3,1.3-1.4,5.5-5.3,8.2-9.8,11.2-.9,0-1.7.2-2.6.2-4.5.2-8.5-.5-11.9-3.8-2.5-2.5-3.7-5.9-3.5-9.4.3-7,3.6-10.4,8.7-14.7Z"/>
  <path class="st8" d="M1172.2,711.3c.5,0,.9,0,1.4,0,5.3.3,10.8,1.7,14.3,5.9,2.2,2.7,3.4,5.7,2.8,9.2-1,6.4-5.1,9.5-10.2,12.9-2.7,0-5.6.1-8.3-.6-4-1.1-7.7-4-9.7-7.6-1.6-3-1.8-6.2-.8-9.4,1.7-5.4,5.7-7.8,10.4-10.3Z"/>
  <path class="st8" d="M1225.7,711.1c1.6,0,3.1,0,4.7.2,4.6.6,8.8,3,11.4,6.9,2,3,2.5,6.7,1.7,10.3-1.3,5.8-5.2,8.5-9.9,11.6-2.2,0-4.4.1-6.6-.3-4.1-.9-8-3.2-10.2-6.8-1.9-3.1-2.2-6.9-1.4-10.3,1.5-5.9,5.4-8.5,10.3-11.5Z"/>
  <path class="st8" d="M1054.5,776.6h624.6c0,0,0,143,0,143,0,21.1,2.4,45.5-.8,66.3-.6,3.9-2.2,6.5-4.4,9.6-4.7,3-8.8,4-14.3,4.3-36.4,1.9-73.9.3-110.4.3h-216.1c0,0-176.3,0-176.3,0-28.3,0-58.1,1.9-86.2-.2-4-.3-8.9-1.9-11.8-4.8-3.4-3.3-3.7-11.8-4-16.3-1.6-23-.1-47.1,0-70.2v-132.1Z"/>
  <path class="st1" d="M1493.6,827.5c39.1,2.4,79.2.8,118.4.8v44.4c.1,0-118.3-.1-118.3-.1v-45Z"/>
  <path class="st1" d="M1494.2,900.4h117.6c0,0,0,45.1,0,45.1-39.1.5-78.2,0-117.3,0l-.3-45Z"/>
  <path class="st5" d="M1128.7,912.6l310.4-.4c0,11.2-.6,22.3-1,33.5-103.1.3-206.2-.1-309.3-1.2v-32Z"/>
  <path class="st5" d="M1128.6,836.6h309.7c0,0,0,33.2,0,33.2h-309.6c0-.1,0-33.2,0-33.2Z"/>
</svg>